<svg xmlns="http://www.w3.org/2000/svg" viewBox="0 0 142.12 61.83">
  <defs>
    <style>
      .cls-1{
        fill:none;
        stroke:#ebb034;
        stroke-miterlimit:10;
        stroke-width:0.25px;
      }

      .cls-2{
        fill:#fff;
      }

      .cls-3{
        fill:#ebb034;
      }
    </style>
  </defs>
  <path class="cls-1" d="M382.08,401.34a8.23,8.23,0,0,0-4.66,15c-12.93,6.33-20.35-.18-22.79-3a8.69,8.69,0,0,0,.89.05,8.27,8.27,0,1,0-2.85-.52c-11.29,7.42-20.59-1-22.79-3.3a8.27,8.27,0,1,0-1,0c-10.28,9.8-19.49,5.3-22.73,3.13a8.23,8.23,0,1,0-2.63.43h.3c-8.16,9.42-18.65,5.22-22.3,3.31a8.33,8.33,0,1,0-.74.44l7,14.37c39.51-6,83.3-.2,83.3-.2l7.17-14.17a8.23,8.23,0,1,0,3.87-15.49Z" transform="translate(-248.32 -380.23)"/>
  <path class="cls-1" d="M369.53,434.51s-42.15-6.35-81.62.27c0,0-1.23.26-1,2s2.77,5.16,2.77,5.16,42.36-3.83,79.25,0a11,11,0,0,0,2.15-4.89S372,435.84,369.53,434.51Z" transform="translate(-248.32 -380.23)"/>
  <path class="cls-2" d="M266.7,410.45l-.1,0a3.44,3.44,0,0,1-1-.42l-.08,0L260,414.29l4.32-5.53-.05-.07a4,4,0,0,1-.37-.91l0-.09-13.32-.89,13.26-.61,0-.1a3.89,3.89,0,0,1,.44-1.11l0-.07-4.4-5.69,5.73,4.4.07,0a3.29,3.29,0,0,1,.89-.35l.09,0,.87-20.29,1,20.38.08,0a2.91,2.91,0,0,1,.51.22l.08,0,5.83-4.49-4.47,5.78.05.07a4.28,4.28,0,0,1,.34.79l0,.09,14.22.66-14.12.94v.09a3.85,3.85,0,0,1-.39,1.05l0,.07,4.31,5.53-5.45-4.28-.08.05a3.82,3.82,0,0,1-1,.42l-.09,0-.76,19.68Z" transform="translate(-248.32 -380.23)"/>
  <path class="cls-3" d="M267.56,385.64l.87,17.59v.17l.16.06a4.4,4.4,0,0,1,.5.21l.14.07.13-.09,5-3.85-3.82,4.95-.11.13.09.15a3.71,3.71,0,0,1,.33.76l.05.17h.18l11.91.55-11.81.78-.19,0,0,.19a3.36,3.36,0,0,1-.37,1l-.08.14.1.13,3.63,4.66-4.58-3.59-.14-.11-.14.09a3.59,3.59,0,0,1-.93.41l-.18.05v.18l-.65,16.7-.79-16.64v-.19l-.19,0a3.65,3.65,0,0,1-1-.41l-.15-.09-.13.11-4.64,3.64,3.63-4.66.11-.13-.09-.15a3.4,3.4,0,0,1-.36-.88l-.05-.17h-.18l-11-.73,10.95-.51h.2l0-.19a3.58,3.58,0,0,1,.43-1.08l.08-.14-.1-.13-3.76-4.86,4.9,3.76.13.1.14-.07a3.51,3.51,0,0,1,.85-.34l.19,0v-.19l.75-17.49m0-5.41-1,22.89a3.67,3.67,0,0,0-.92.36l-6.43-5,4.94,6.39a3.73,3.73,0,0,0-.45,1.15l-15.38.71,15.44,1a3.91,3.91,0,0,0,.4.94L259.27,415l6.24-4.9a4,4,0,0,0,1.07.43L267.65,433l.87-22.49a3.52,3.52,0,0,0,1-.44l6.19,4.86-4.89-6.27a3.75,3.75,0,0,0,.4-1.09l16.23-1.08-16.34-.75a4,4,0,0,0-.36-.82l5-6.48-6.54,5a3.54,3.54,0,0,0-.53-.23l-1.14-23Z" transform="translate(-248.32 -380.23)"/>
</svg>