<?xml version="1.0" encoding="utf-8"?>
<!-- Generator: Adobe Illustrator 24.0.1, SVG Export Plug-In . SVG Version: 6.00 Build 0)  -->
<svg version="1.1" id="Layer_2_1_" xmlns="http://www.w3.org/2000/svg" xmlns:xlink="http://www.w3.org/1999/xlink" x="0px" y="0px"
	 viewBox="0 0 238.8 100" style="enable-background:new 0 0 238.8 100;" xml:space="preserve">
<style type="text/css">
	.st0{fill:#A30A2F;}
</style>
<path class="st0" d="M15.8,13.2C9.6,10.5,7.9,9.8,2.3,7.2C0.4,6.4-0.4,4.2,0.5,2.3c0.9-1.8,3.2-2.6,5.1-1.7l10,4.4
	c59.6,25.3,136.9,44.7,218.6,29.8c2.1-0.4,4.1,0.9,4.5,2.9c0.4,2-1,3.9-3,4.3c-4.5,0.8-9,1.5-13.5,2.1l-35,53.9
	c-0.7,1.1-1.9,1.7-3.2,1.7c0,0,0,0,0,0c-1.3,0-2.5-0.7-3.2-1.8l-31.2-49l-40.9,45.3c-0.7,0.8-1.8,1.3-2.9,1.3c-0.2,0-0.5,0-0.7-0.1
	c-1.3-0.2-2.4-1.1-2.9-2.4L82.1,39.7L38.4,76.3c-0.7,0.6-1.6,0.9-2.5,0.9c-0.4,0-0.8-0.1-1.2-0.2c-1.3-0.4-2.2-1.4-2.6-2.6
	L16.5,13.7C16.5,13.7,16.3,13.4,15.8,13.2z M25.2,17l12.8,49.9L77.3,34C58.9,29.2,41.5,23.3,25.2,17z M89.2,37l17.8,47.7l35.2-39
	C124,44,106.2,41,89.2,37z M176,47.4c-6.4,0-12.7-0.2-18.9-0.5l26.9,42.2l28.4-43.8C200.1,46.7,187.9,47.4,176,47.4z"/>
</svg>
