<?xml version="1.0" encoding="utf-8"?>
<!-- Generator: Adobe Illustrator 24.0.1, SVG Export Plug-In . SVG Version: 6.00 Build 0)  -->
<svg version="1.1" id="Layer_2_1_" xmlns="http://www.w3.org/2000/svg" xmlns:xlink="http://www.w3.org/1999/xlink" x="0px" y="0px"
	 viewBox="0 0 100 100" style="enable-background:new 0 0 100 100;" xml:space="preserve">
<style type="text/css">
	.st0{fill:#FFFFFF;}
</style>
<g>
	<g>
		<g>
			<path class="st0" d="M50,9c13.4,0,15,0.1,20.2,0.3c4.9,0.2,7.5,1,9.3,1.7c2.2,0.8,4.1,2.1,5.7,3.7c1.7,1.6,2.9,3.6,3.7,5.7
				c0.7,1.8,1.5,4.4,1.7,9.3C91,35.1,91,36.7,91,50s0,14.9-0.3,20.2c-0.2,4.9-1,7.5-1.7,9.3c-1.7,4.4-5.1,7.8-9.5,9.5
				c-1.8,0.7-4.4,1.5-9.3,1.7C65,90.9,63.4,91,50,91s-14.9-0.1-20.2-0.3c-4.9-0.2-7.5-1-9.3-1.7c-2.2-0.8-4.1-2.1-5.7-3.7
				c-1.7-1.6-2.9-3.6-3.7-5.7c-0.7-1.8-1.5-4.4-1.7-9.3C9.1,64.9,9,63.4,9,50s0-14.9,0.3-20.2c0.2-4.9,1-7.5,1.7-9.3
				c0.8-2.2,2.1-4.1,3.7-5.8s3.6-2.9,5.7-3.7c1.8-0.7,4.4-1.5,9.3-1.7C35.1,9.1,36.7,9,50,9 M50,0C36.4,0,34.7,0.1,29.4,0.3
				s-9,1.1-12.1,2.3C14,3.9,10.9,5.8,8.4,8.4c-2.5,2.5-4.5,5.5-5.8,8.9c-1.2,3.2-2.1,6.8-2.3,12.1S0,36.4,0,50s0.1,15.3,0.3,20.6
				c0.2,5.3,1.1,9,2.3,12.1c1.3,3.3,3.2,6.4,5.8,8.9c2.5,2.5,5.5,4.5,8.9,5.8c3.2,1.2,6.8,2.1,12.1,2.3s7,0.3,20.6,0.3
				s15.3-0.1,20.6-0.3c5.3-0.2,9-1.1,12.1-2.3c6.7-2.6,12-7.9,14.6-14.6c1.2-3.2,2.1-6.8,2.3-12.1c0.2-5.3,0.3-7,0.3-20.6
				s-0.1-15.3-0.3-20.6c-0.2-5.3-1.1-9-2.3-12.1c-1.3-3.3-3.2-6.4-5.8-8.9C89,6,86,4,82.6,2.7c-3-1.3-6.6-2.1-12-2.4
				C65.3,0.1,63.6,0,50,0"/>
			<path class="st0" d="M50,24.3c-14.2,0-25.7,11.5-25.7,25.7S35.8,75.7,50,75.7S75.7,64.2,75.7,50l0,0C75.7,35.8,64.2,24.3,50,24.3
				 M50,66.7c-9.2,0-16.7-7.5-16.7-16.7S40.8,33.3,50,33.3S66.7,40.8,66.7,50S59.2,66.7,50,66.7"/>
			<path class="st0" d="M82.7,23.3c0,3.3-2.7,6-6,6s-6-2.7-6-6s2.7-6,6-6l0,0C80,17.3,82.7,20,82.7,23.3L82.7,23.3"/>
		</g>
	</g>
</g>
</svg>
