<?xml version="1.0" encoding="utf-8"?>
<!-- Generator: Adobe Illustrator 24.0.1, SVG Export Plug-In . SVG Version: 6.00 Build 0)  -->
<svg version="1.1" id="Layer_2_1_" xmlns="http://www.w3.org/2000/svg" xmlns:xlink="http://www.w3.org/1999/xlink" x="0px" y="0px"
	 viewBox="0 0 100 100" style="enable-background:new 0 0 100 100;" xml:space="preserve">
<style type="text/css">
	.st0{fill:#A30A2F;}
</style>
<path class="st0" d="M99.9,48.4c0-8.5-5.4-16.1-13.4-19C82,9.1,62-3.6,41.8,0.9C27.7,4.1,16.6,15.2,13.4,29.3
	C2.9,33.1-2.5,44.7,1.3,55.2c2,5.6,6.3,10,11.9,12.1c0.6,0.9,1.5,1.4,2.5,1.4c1.7,0,3.1-1.4,3.1-3.1V38c11.1,1.7,22.3-2,30.2-10
	c6,13.6,17.8,23.7,32.2,27.4v3.8c0,13.7-8.8,25.8-21.8,29.9c-0.8-5.1-5.6-8.6-10.7-7.9c-5.1,0.8-8.6,5.6-7.8,10.7
	c0.8,5.1,5.6,8.6,10.7,7.9c2.5-0.4,4.8-1.8,6.2-3.8c14.4-3,25.8-14.2,29-28.6C94.6,64.5,99.9,56.9,99.9,48.4z M50,93.7
	c-1.7,0-3.1-1.4-3.1-3.1c0-1.7,1.4-3.1,3.1-3.1c1.7,0,3.1,1.4,3.1,3.1C53.1,92.3,51.7,93.7,50,93.7z M6.3,48.4
	c0-4.7,2.4-9.1,6.2-11.7c0,0.3,0,0.5,0,0.8v22.6C8.7,57.5,6.3,53.1,6.3,48.4z M53.1,21.1c-0.4-1.7-2.1-2.7-3.8-2.3
	c-0.7,0.2-1.4,0.7-1.8,1.3c-6.2,9.2-17.2,13.8-28.1,11.8l0,0c3.2-17,19.5-28.2,36.4-25c12.7,2.4,22.6,12.3,24.9,25
	c0.3,1.8,0.5,3.7,0.4,5.6V49C67.8,44.9,57.3,34.5,53.1,21.1z M87.4,60.1c0-0.3,0-0.5,0-0.8V37.4c0-0.3,0-0.5,0-0.8
	c6.4,4.3,8.2,13,4,19.4C90.4,57.7,89,59,87.4,60.1z"/>
</svg>
