<svg id="the_ncc" data-name="the ncc" xmlns="http://www.w3.org/2000/svg" viewBox="0 0 264.64 100">
  <title>ncc</title>
  <path d="M227.63,100a54,54,0,0,1-16.81-2.59C193.75,91.91,182.75,81,178.1,64.94c-4.91-16.95-2.19-32.31,8.09-45.65A47.89,47.89,0,0,1,214.65,1.58C227.11-1.17,239-.3,250,4.16a44.59,44.59,0,0,1,12.18,7.41c.19.16.37.33.58.52l.26.24a2.68,2.68,0,0,1,.36,3.54l-10,13.91a2.65,2.65,0,0,1-1.75,1.09,2.7,2.7,0,0,1-2-.48l-.24-.17c-.22-.16-.41-.29-.59-.44a29,29,0,0,0-21.56-6.35,28.06,28.06,0,0,0-12.7,3.8A24.32,24.32,0,0,0,203.37,43a28.17,28.17,0,0,0,2.91,21.34C210.14,71,216,74.86,224.16,76.21a31.46,31.46,0,0,0,15.25-.85A28.81,28.81,0,0,0,249.09,70l.53-.44.3-.24a2.71,2.71,0,0,1,2.05-.58,2.66,2.66,0,0,1,1.83,1.1l10,14a2.67,2.67,0,0,1-.49,3.64l-1.05.86c-.78.65-1.59,1.32-2.44,2a48.69,48.69,0,0,1-22.26,9A67.64,67.64,0,0,1,227.63,100Zm1-94.63A59.29,59.29,0,0,0,215.8,6.82a42.67,42.67,0,0,0-25.36,15.74c-9.17,11.91-11.59,25.67-7.19,40.89,4.12,14.22,13.95,23.94,29.22,28.87A52.86,52.86,0,0,0,236.79,94a43.48,43.48,0,0,0,19.84-8c.46-.34.9-.7,1.36-1.07l-6.9-9.63a34.39,34.39,0,0,1-10,5.19,36.9,36.9,0,0,1-17.79,1.05c-9.72-1.61-17-6.5-21.66-14.53a33.43,33.43,0,0,1-3.48-25.28,29.54,29.54,0,0,1,13.64-19.05,33.62,33.62,0,0,1,15-4.57,34.7,34.7,0,0,1,23.85,6.35l6.94-9.69a39.22,39.22,0,0,0-9.6-5.6A51.22,51.22,0,0,0,228.59,5.38ZM150.23,100a53.76,53.76,0,0,1-19.76-3.59C114,90,103.73,78.46,100.05,62.22c-4.28-18.83.19-34.94,13.29-47.88A48.56,48.56,0,0,1,139.55,1.11a59.84,59.84,0,0,1,30.91,2.21,46,46,0,0,1,14.16,8.08l.66.57.35.31a2.68,2.68,0,0,1,.41,3.58l-10,13.9a2.68,2.68,0,0,1-3.74.61l-.21-.14c-.21-.15-.4-.28-.57-.42-6.26-5-13.39-7.13-21.82-6.39a27.93,27.93,0,0,0-13.19,4.22A24.6,24.6,0,0,0,125.7,44.25a28.12,28.12,0,0,0,3.17,20c3.92,6.74,9.83,10.66,18,12A31.35,31.35,0,0,0,163.2,75a28.79,28.79,0,0,0,8.49-4.91l.55-.46.32-.26a2.72,2.72,0,0,1,2.05-.58,2.66,2.66,0,0,1,1.83,1.1l10.06,14a2.69,2.69,0,0,1-.59,3.72L184.09,89c-1.33,1-2.71,2.07-4.18,3a49.17,49.17,0,0,1-20.68,7.36A70.34,70.34,0,0,1,150.23,100ZM151.32,5.4a62.25,62.25,0,0,0-10.84,1,43.33,43.33,0,0,0-23.37,11.77c-11.69,11.55-15.67,26-11.83,42.87,3.27,14.4,12.4,24.6,27.13,30.34,7.85,3,16.39,3.93,26.13,2.67A43.49,43.49,0,0,0,177,87.5c1.21-.79,2.38-1.67,3.61-2.6l-6.88-9.6A34.26,34.26,0,0,1,165.07,80a36.49,36.49,0,0,1-19,1.53C136.29,80,129,75.06,124.23,67a33.38,33.38,0,0,1-3.8-23.73A29.79,29.79,0,0,1,133.6,23.15a33.12,33.12,0,0,1,15.66-5.07,34.71,34.71,0,0,1,24.05,6.33l6.93-9.66a40.81,40.81,0,0,0-11.58-6.38A51.13,51.13,0,0,0,151.32,5.4ZM94.24,98.07H73a2.68,2.68,0,0,1-2.68-2.68V46.05A31.78,31.78,0,0,0,68.7,35.28C66.48,29,62.09,25.49,55.26,24.43a26.81,26.81,0,0,0-14,1.33C34.65,28.34,30.63,33.15,29,40.45a38.35,38.35,0,0,0-.94,8.13C28,59.79,28,71.19,28,82.22c0,3.93,0,7.85,0,11.78v1.35A2.69,2.69,0,0,1,25.34,98H4.17a2.68,2.68,0,0,1-2.68-2.68V3.93A2.68,2.68,0,0,1,4.17,1.25H24.31A2.68,2.68,0,0,1,27,3.93V9.47A40,40,0,0,1,46.17,1,51.35,51.35,0,0,1,70,2.08C84,6.27,92.6,15.71,95.68,30.15a59.72,59.72,0,0,1,1.24,12.63V95.39A2.69,2.69,0,0,1,94.24,98.07ZM75.63,92.7H91.56V42.78a54.46,54.46,0,0,0-1.13-11.51c-2.68-12.55-9.87-20.42-22-24a46,46,0,0,0-21.38-.9c-8.43,1.44-15,4.89-20,10.55a5.35,5.35,0,0,1-.67.62l-.29.25a2.69,2.69,0,0,1-4.45-2V6.61H6.85V92.67H22.66c0-3.48,0-7,0-10.44,0-11,0-22.45,0-33.68a43.81,43.81,0,0,1,1.07-9.27c2-9,7.27-15.28,15.58-18.52a32.15,32.15,0,0,1,16.74-1.63c8.83,1.37,14.78,6.19,17.68,14.35a37,37,0,0,1,1.87,12.57q0,17.46,0,34.91Z" fill="#a30a2f"/>
</svg>
