<?xml version="1.0" encoding="utf-8"?>
<!-- Generator: Adobe Illustrator 24.0.1, SVG Export Plug-In . SVG Version: 6.00 Build 0)  -->
<svg version="1.1" id="Layer_2" xmlns="http://www.w3.org/2000/svg" xmlns:xlink="http://www.w3.org/1999/xlink" x="0px" y="0px"
	 viewBox="0 0 88.4 100" style="enable-background:new 0 0 88.4 100;" xml:space="preserve">
<style type="text/css">
	.st0{fill:#464446;}
</style>
<path class="st0" d="M72,0c-9,0-16.3,7.3-16.3,16.1c0,1.8,0.3,3.6,0.9,5.2l-28,17.9c-3-3.3-7.3-5.4-12.1-5.4
	c-9,0-16.3,7.3-16.3,16.1c0,8.9,7.4,16.1,16.3,16.1c4.8,0,9.2-2.1,12.2-5.4l27.9,17.9c-0.6,1.6-0.9,3.4-0.9,5.2
	C55.6,92.7,63,100,72,100s16.3-7.3,16.3-16.1c0-8.9-7.4-16.1-16.3-16.1c-4.8,0-9.1,2.1-12.1,5.4l-28-17.9c0.6-1.6,0.9-3.4,0.9-5.2
	c0-1.8-0.3-3.5-0.9-5.2l27.9-17.9c3,3.3,7.3,5.4,12.2,5.4c9,0,16.3-7.3,16.3-16.1C88.3,7.3,80.9,0,72,0L72,0z M72,6.5
	c5.5,0,9.8,4.3,9.8,9.7c0,5.4-4.4,9.7-9.8,9.7s-9.8-4.3-9.8-9.7C62.2,10.7,66.5,6.5,72,6.5z M16.4,40.3c5.5,0,9.8,4.3,9.8,9.7
	c0,5.4-4.4,9.7-9.8,9.7c-5.5,0-9.8-4.3-9.8-9.7C6.6,44.6,11,40.3,16.4,40.3z M72,74.2c5.5,0,9.8,4.3,9.8,9.7c0,5.4-4.4,9.7-9.8,9.7
	s-9.8-4.3-9.8-9.7C62.2,78.5,66.5,74.2,72,74.2z"/>
</svg>
