<?xml version="1.0" encoding="utf-8"?>
<!-- Generator: Adobe Illustrator 24.0.1, SVG Export Plug-In . SVG Version: 6.00 Build 0)  -->
<svg version="1.1" id="Layer_2" xmlns="http://www.w3.org/2000/svg" xmlns:xlink="http://www.w3.org/1999/xlink" x="0px" y="0px"
	 viewBox="0 0 160.3 100" style="enable-background:new 0 0 160.3 100;" xml:space="preserve">
<style type="text/css">
	.st0{fill:none;}
</style>
<g>
	<path class="st0" d="M160.2,100h-12.8V73.7H13V100H0.2V6.7C0.2,5,0.8,3.5,2,2.1C3.3,0.7,4.8,0,6.6,0c1.8,0,3.3,0.7,4.5,2.1
		C12.3,3.5,13,5,13,6.7v53.8h147.2V100z M24.8,13.1c2.3-2.3,5.1-3.5,8.3-3.5c3.2,0,6,1.2,8.4,3.5c2.4,2.4,3.6,5.2,3.6,8.5
		c0,3.3-1.2,6.1-3.6,8.5c-2.4,2.3-5.2,3.5-8.4,3.5c-3.2,0-6-1.2-8.3-3.5c-2.3-2.4-3.4-5.2-3.4-8.5C21.4,18.3,22.6,15.5,24.8,13.1
		 M51.4,22.1c0-1.7,0.6-3.1,1.7-4.3c1.1-1.2,2.6-1.8,4.2-1.8H58l73.9,4.1c15.8,0.9,28.2,14.3,28.2,30.6H27.7c-4,0-5.9-1.7-5.9-5
		c0-3.3,2-5,5.9-5h23.7V22.1z"/>
</g>
</svg>
