<?xml version="1.0" encoding="utf-8"?>
<!-- Generator: Adobe Illustrator 24.0.1, SVG Export Plug-In . SVG Version: 6.00 Build 0)  -->
<svg version="1.1" id="Layer_3" xmlns="http://www.w3.org/2000/svg" xmlns:xlink="http://www.w3.org/1999/xlink" x="0px" y="0px"
	 viewBox="0 0 106.7 100" style="enable-background:new 0 0 106.7 100;" xml:space="preserve">
<style type="text/css">
	.st0{fill:#FFFFFF;}
</style>
<g>
	<g>
		<path class="st0" d="M86.8,29.5c-2.3,0-4.2,1.9-4.2,4.2c0,16.4-13.1,29.7-29.3,29.7C37.2,63.5,24,50.1,24,33.7
			c0-2.3-1.9-4.2-4.2-4.2c-2.3,0-4.2,1.9-4.2,4.2c0,19.7,14.7,35.9,33.5,38l0.6,28.3h5.9l1.9-28.3C76.3,69.6,91,53.4,91,33.7
			C91,31.4,89.1,29.5,86.8,29.5z M23.1,20.6l8-9.7l8,9.7c0.8,1,2,1.5,3.2,1.5c0,0,0,0,0,0c1.2,0,2.4-0.6,3.2-1.5l7.9-9.7l7.9,9.7
			c1.6,1.9,4.8,1.9,6.4,0l7.9-9.7l7.9,9.7c0.8,1,2,1.5,3.2,1.5c0.9,0,1.9-0.3,2.7-1c1.8-1.5,2-4.2,0.5-6L78.9,1.5
			c-0.8-1-2-1.5-3.2-1.5c-1.2,0-2.4,0.6-3.2,1.5l-7.9,9.7l-7.9-9.7c-0.8-1-2-1.5-3.2-1.5c-1.2,0-2.4,0.6-3.2,1.5l-7.9,9.7l-8-9.7
			c-1.6-1.9-4.8-1.9-6.4,0L16.7,15.1c-1.5,1.8-1.2,4.5,0.5,6C19,22.6,21.6,22.4,23.1,20.6z"/>
	</g>
</g>
</svg>
