<?xml version="1.0" encoding="utf-8"?>
<!-- Generator: Adobe Illustrator 24.0.1, SVG Export Plug-In . SVG Version: 6.00 Build 0)  -->
<svg version="1.1" id="Layer_2_1_" xmlns="http://www.w3.org/2000/svg" xmlns:xlink="http://www.w3.org/1999/xlink" x="0px" y="0px"
	 viewBox="0 0 123.1 100" style="enable-background:new 0 0 123.1 100;" xml:space="preserve">
<style type="text/css">
	.st0{fill:#FFFFFF;}
</style>
<g id="twitter">
	<path class="st0" d="M123,12.4c-4.5,2.1-9.3,3.4-14.3,3.7c4.9-3.2,8.7-8,10.6-13.7c-4.7,2.9-10,4.8-15.5,5.6l0,0
		c-4.6-5.1-11.1-8-18-8.1C71.8,0,60.4,11.3,60.4,25.3c-0.1,1.9,0.1,3.8,0.6,5.6l0,0C40.3,30.3,20.9,20.8,7.6,5
		C1.2,16.4,4.4,30.9,15,38.5c-4,0.2-7.9-0.9-11.2-3.1C3.6,47.2,11.6,57.5,23,60.2c-3.3,1.4-7.1,1.6-10.6,0.6
		c0.6,7.4,11.2,17.4,22.3,17.4c-9.4,8.7-22.2,12.6-34.8,10.6c12,7.2,25.7,11.1,39.7,11.2c38.8,0.3,70.6-31,70.8-69.8
		c0-1.4,0-2.7-0.1-4.1l0,0v-1.2C115.5,21.5,119.7,17.3,123,12.4z"/>
</g>
</svg>
