<svg xmlns="http://www.w3.org/2000/svg" viewBox="0 0 61.35 99.1" class="h-full">
  <g>
    <path class="fill-current" d="M57.82 42.08S56 42.3 55.66 41s5.22-6.92 5.7-7.42c0 0-11.25 5.38-9.29.26 0 0-12.83 12.6-15.53 9.92s6.32-15.84 11.55-18.62c0 0-2.91-.14-3.63-2.6-.34-1.13 1.45-6.66 2-8.61 0 0-10.07 12-13.35 9.55-2.87-2.13-3-14.56-2.62-17.64 0 0-3.7 3.43-4.87 2.81S23.34 1.61 23 0c0 0-.93 7.46-1.91 7.65s-2.17-1.4-2.17-1.4 3.33 13.33.61 15.66S8.57 19 7.4 18.18c0 0 3.88 5.84.93 6.19 0 0 11.56 13.44 12 17.47.64 6.64-16.7-5-19.14-10 0 0 4.25 9.8 2.26 12.6A4.74 4.74 0 010 46.18s19.17 10 18.64 14.71-15.38-4-17.39-5.69c0 0 2.57 3.82 2 5.28 0 0 12.23 8.73 12.14 11.49S10 75.34 8.4 75.54c0 0 13.28 2.22 19.36 10.6-.06 1.66-.14 3.32-.26 5-.2 2.67-.48 5.34-.87 8H28c.33-2.64.58-5.28.73-7.93q.13-2.43.18-4.86c2.4-1.78 11.08-7.88 18.33-9 0 0-7.14.61-6-2.1 1.32-3.06 16.07-18.61 16.07-18.61s-15.86 8.22-17.93 4.88c-2.78-4.51 16.34-19.3 18.47-19.36"/>
  </g>
</svg>