<svg xmlns="http://www.w3.org/2000/svg" viewBox="0 0 238.8 100" class="h-full">
  <path class="fill-current" d="M15.8 13.2c-6.2-2.7-7.9-3.4-13.5-6C.4 6.4-.4 4.2.5 2.3 1.4.5 3.7-.3 5.6.6l10 4.4c59.6 25.3 136.9 44.7 218.6 29.8 2.1-.4 4.1.9 4.5 2.9.4 2-1 3.9-3 4.3-4.5.8-9 1.5-13.5 2.1l-35 53.9c-.7 1.1-1.9 1.7-3.2 1.7-1.3 0-2.5-.7-3.2-1.8l-31.2-49-40.9 45.3c-.7.8-1.8 1.3-2.9 1.3-.2 0-.5 0-.7-.1-1.3-.2-2.4-1.1-2.9-2.4L82.1 39.7 38.4 76.3c-.7.6-1.6.9-2.5.9-.4 0-.8-.1-1.2-.2-1.3-.4-2.2-1.4-2.6-2.6L16.5 13.7s-.2-.3-.7-.5zm9.4 3.8L38 66.9 77.3 34c-18.4-4.8-35.8-10.7-52.1-17zm64 20L107 84.7l35.2-39c-18.2-1.7-36-4.7-53-8.7zM176 47.4c-6.4 0-12.7-.2-18.9-.5L184 89.1l28.4-43.8c-12.3 1.4-24.5 2.1-36.4 2.1z" />
</svg>
