<svg xmlns="http://www.w3.org/2000/svg" viewBox="0 0 53.32 77.05" class="h-full">
  <g class="fill-current">
    <path d="M13.72 40.73a20.56 20.56 0 006.58 1.33c2.56 0 4.31-.79 5.34-2.43 1.51-2.39 3.09-3.56 4.83-3.56a6.24 6.24 0 013.61 1.54 4.94 4.94 0 001.21.72 10.25 10.25 0 001.69.18c.69 0 .9-.14.92-.16a.15.15 0 000-.06c-1.63-2.34-3-4.26-3.69-5.22V33a1.2 1.2 0 011.61-1.72 40.72 40.72 0 004.75 2.52c-2-4-8.37-14.78-12.4-18.89l-1.54-.68-1.24.52c-4 3.95-10.56 15-12.55 19a42 42 0 004.74-2.51 1.2 1.2 0 011.51.2 1.22 1.22 0 01.1 1.53c-.51.7-2.88 4-5.43 7.72m6.58 3.74a24.16 24.16 0 01-8.92-2.09 1.19 1.19 0 01-.49-1.76c1.16-1.71 2.31-3.38 3.32-4.81a7.92 7.92 0 01-2.7.8 1.7 1.7 0 01-1.28-.51 1.56 1.56 0 01-.4-1.19c.14-2.18 9.47-17.72 14-22.06a1.41 1.41 0 01.36-.24l1.93-.8a1.16 1.16 0 01.95 0l2.23 1a1.24 1.24 0 01.35.25c4.65 4.6 13.69 19.75 13.82 21.87a1.55 1.55 0 01-.4 1.18 1.7 1.7 0 01-1.28.51 7.92 7.92 0 01-2.7-.8l1 1.38a1.15 1.15 0 01.21.51 2.67 2.67 0 01-.55 2.22 3.42 3.42 0 01-2.75 1 12.72 12.72 0 01-2.09-.2 5.47 5.47 0 01-2.21-1.15 4.46 4.46 0 00-2.21-1.08c-.84 0-1.78.82-2.79 2.43-1.46 2.33-4 3.56-7.38 3.56" class="cls-3"/>
    <path d="M13.48 47.88a1.2 1.2 0 01.89 2c-4.62 5.14-12 14.53-12 17.85 0 .21 0 .31.06.32s.18.13.77.13a32.26 32.26 0 006.8-1.5 85.86 85.86 0 0111-2.59 38.15 38.15 0 015.65-.45 38.49 38.49 0 015.93.49 87.25 87.25 0 0110.73 2.55 32.26 32.26 0 006.76 1.51c.83 0 .83-.13.83-.45 0-3.32-7.34-12.71-12-17.85a1.2 1.2 0 011.53-1.83A32.41 32.41 0 0046.08 51a100.63 100.63 0 00-6.77-10.69 3.89 3.89 0 01-2.33.6 12.72 12.72 0 01-2.09-.2 5.47 5.47 0 01-2.21-1.15 4.46 4.46 0 00-2.21-1.08c-1 0-2.09 1.32-2.79 2.43-1.46 2.33-4 3.56-7.38 3.56a23.3 23.3 0 01-8-1.69A80.3 80.3 0 007.25 51a31.48 31.48 0 005.55-2.9 1.24 1.24 0 01.64-.18M3.24 70.6A3.59 3.59 0 011 70a2.7 2.7 0 01-1-2.24c0-3.48 4.8-10.08 8.49-14.65a6.34 6.34 0 01-2.13.52 1.74 1.74 0 01-1.87-1.44c-.13-.7-.3-1.67 6.4-11.55a1.2 1.2 0 011.5-.42 22.22 22.22 0 007.91 1.86c2.56 0 4.31-.79 5.34-2.43 1.51-2.39 3.09-3.56 4.83-3.56a6.24 6.24 0 013.61 1.54 4.94 4.94 0 001.21.72 10.25 10.25 0 001.69.18c.69 0 .9-.14.92-.16a1 1 0 000-.3 1.2 1.2 0 012.18-.86c9.1 13.08 8.89 14.27 8.77 15a1.77 1.77 0 01-1.85 1.4 6.34 6.34 0 01-2.13-.52c3.69 4.57 8.49 11.18 8.49 14.65 0 .86-.32 2.86-3.24 2.86-1.78 0-4.27-.71-7.42-1.61a85.61 85.61 0 00-10.43-2.48 36.51 36.51 0 00-5.57-.46 35.77 35.77 0 00-5.29.42A84.06 84.06 0 0010.66 69c-3.15.89-5.66 1.6-7.42 1.6zM21.66 7.14l1.71 2a1.23 1.23 0 01.28.94L23.26 13l2.88-1.2a1.16 1.16 0 01.95 0l2.66 1.2-.29-2.93a1.21 1.21 0 01.39-1l2-1.82-3.16-.94a1.2 1.2 0 01-.69-.54l-1.37-2.22-1.49 2.58a1.2 1.2 0 01-.85.58zm.12 9a1.21 1.21 0 01-1.19-1.37l.6-4.46-2.74-3.24a1.2 1.2 0 01-.21-1.19 1.21 1.21 0 01.93-.78l4.17-.67L25.56.6a1.21 1.21 0 011-.6 1.17 1.17 0 011 .57l2.24 3.54 4.77 1.41a1.19 1.19 0 01.47 2l-3.13 2.86.42 4.28a.86.86 0 010 .23 1.21 1.21 0 01-1.2 1.21 1.16 1.16 0 01-.48-.11l-4.07-1.8L22.25 16a1.1 1.1 0 01-.47.1" class="cls-3"/>
    <path d="M22.39 74.64h8.82v-8.27a35.35 35.35 0 00-4.55-.32 36.09 36.09 0 00-4.27.28zm10 2.41h-11.2a1.2 1.2 0 01-1.2-1.2V65.28a1.2 1.2 0 011-1.19 38.08 38.08 0 015.65-.44 39.7 39.7 0 015.93.48 1.2 1.2 0 011 1.19v10.53a1.2 1.2 0 01-1.2 1.2" class="cls-3"/>
  </g>
</svg>