<svg xmlns="http://www.w3.org/2000/svg" viewBox="0 0 87.39 97.99">
  <g class="h-full fill-current">
    <path d="M28.4 7.14A15.4 15.4 0 104.21 26 47.33 47.33 0 0128.4 7.14zM83.18 26A15.4 15.4 0 1059 7.14 47.33 47.33 0 0183.18 26z"/>
    <path d="M73.42 22a42 42 0 109 13.36 42 42 0 00-9-13.36zM43.7 85.45a33.7 33.7 0 1133.7-33.7 33.73 33.73 0 01-33.7 33.7z"/>
    <path d="M65.28 61.29l-15.46-11.1a6.39 6.39 0 00-2-3.19V27.8a4.17 4.17 0 10-8.33 0V47a6.31 6.31 0 004.21 11.06 6.17 6.17 0 002.23-.41l14.49 10.41a4.17 4.17 0 004.86-6.77z"/>
    <circle cx="15.7" cy="92.67" r="5.32"/>
    <circle cx="71.69" cy="92.67" r="5.32"/>
  </g>
</svg>