<svg xmlns="http://www.w3.org/2000/svg" viewBox="0 0 64.52 93.84" class="h-full">
  <g class="fill-current">
    <path d="M7.71 3a3.28 3.28 0 00-1.3.26C4.51 4 3.67 6.44 3.3 8.32c-1.85 9.34 3.32 27 13 37.48l.47-.37c-4.86-5.06-8.53-18-8.12-24.34.16-2.48.93-4.05 2.29-4.68a2.85 2.85 0 011.18-.26c1.21 0 2.39.73 3.61 2.25 3.79 4.68 7.8 16.66 8.08 23.13.38-.14.77-.27 1.16-.39C24.09 22 14.37 3 7.71 3m8.49 46.3a1.47 1.47 0 01-1-.43C3.92 37.56-1.63 18.13.42 7.75 1.15 4.06 2.83 1.57 5.27.54A6.3 6.3 0 017.71 0c4.6 0 9.58 5.17 13.69 14.18a75.86 75.86 0 016.54 28 1.47 1.47 0 01-1.1 1.46 22 22 0 00-4 1.44 1.46 1.46 0 01-1.54-.18 1.44 1.44 0 01-.52-1.45c.88-4.13-3.33-17.78-7-22.83-.94-1.27-1.48-1.51-1.61-1.55s-.47.67-.57 2.18c-.43 6.58 4.06 20.3 8.35 23a1.46 1.46 0 010 2.46 23.72 23.72 0 00-2.77 2.16 1.45 1.45 0 01-1 .38"/>
    <path d="M42.9 71.2v-1.47a1.54 1.54 0 01-1.54-1.55 1.57 1.57 0 01.45-1.1 1.54 1.54 0 011.09-.45 1.52 1.52 0 011.08.45 1.57 1.57 0 01.45 1.1 1.55 1.55 0 01-.45 1.1 1.52 1.52 0 01-1.08.45v2.93a4.46 4.46 0 003.16-1.31 4.47 4.47 0 10-6.32 0 4.44 4.44 0 003.16 1.31zm-9.63 10.17v-1.46.39-.39.09-.12.12-.12a1.21 1.21 0 01-.22-.08 5.62 5.62 0 01-.92-.55 10.71 10.71 0 01-1.4-1.25 3.46 3.46 0 01-.39-.47l-.43.23.46-.15v-.08l-.43.23.46-.15-1 .33h1.07a1 1 0 00-.05-.33l-1 .33h.56l.49.15a.4.4 0 000-.15h-.51l.49.15h-.14.14-.14.14l.06-.1a1.74 1.74 0 01.25-.23l-.17-.44v.47a.36.36 0 00.17 0l-.17-.44v.47H36v-.4l-.11.38H36v-.4l-.11.38v-.15l-.06.15v-.15l-.06.15.09.06a1.3 1.3 0 01.18.23l.48-.17h-.5a.51.51 0 000 .17l.48-.17h.73l-1.19-.31a1.05 1.05 0 000 .31h1.23l-1.19-.31.76.2-.69-.38a.62.62 0 00-.07.18l.76.2-.69-.38.11.07-.11-.07.11.07-.11-.07-.2.25c-.17.2-.43.47-.72.75a11.58 11.58 0 01-1.42 1.12 3.36 3.36 0 01-.56.31h-.13l.07.33v-.33h.01l.07.33v2.6a3.09 3.09 0 001.08-.22 7.26 7.26 0 001.53-.87 15.17 15.17 0 002-1.7 7.52 7.52 0 00.72-.84 3.31 3.31 0 00.29-.46 2.63 2.63 0 00.13-.32 2 2 0 00.09-.53 2.89 2.89 0 00-.09-.63 3.3 3.3 0 00-.39-.85 3.81 3.81 0 00-1-1 2.83 2.83 0 00-.71-.39 2.64 2.64 0 00-.92-.17h-5.44a2.45 2.45 0 00-1.23.33 3.73 3.73 0 00-1.22 1 3.08 3.08 0 00-.44.73 2.49 2.49 0 00-.21 1 1.92 1.92 0 00.13.69 2.8 2.8 0 00.42.73 8.1 8.1 0 001 1.09A13.31 13.31 0 0030.92 82a7.94 7.94 0 001.07.58 5.66 5.66 0 00.58.2 3 3 0 00.7.09zm-9.8-10.17v-1.47a1.54 1.54 0 01-1.53-1.55 1.57 1.57 0 01.45-1.1 1.53 1.53 0 012.17 0 1.57 1.57 0 01.45 1.1 1.54 1.54 0 01-1.54 1.55v2.93a4.47 4.47 0 003.17-1.31 4.47 4.47 0 10-6.33 0 4.46 4.46 0 003.16 1.31zm25.58-23.39l1-1.08a27.18 27.18 0 00-3.12-2.43 25.38 25.38 0 00-3.26-1.85 24.45 24.45 0 00-4.51-1.63 26.29 26.29 0 00-13 0 24.45 24.45 0 00-4.51 1.63 24.85 24.85 0 00-3.27 1.85 27.18 27.18 0 00-3.12 2.43A30.27 30.27 0 007.8 57.16a31.05 31.05 0 00-2.62 12.35 26 26 0 001.58 9.07 21.87 21.87 0 008.82 10.91c4.31 2.74 10 4.35 17.05 4.35a35.23 35.23 0 0012.28-2 22.52 22.52 0 0011.53-9.13 24.59 24.59 0 003.63-13.2 31.05 31.05 0 00-2.62-12.35A30.27 30.27 0 0050 46.73l-1 1.08-1 1.09a27.42 27.42 0 016.69 9.43 28.25 28.25 0 012.38 11.18 23 23 0 01-1.4 8A18.82 18.82 0 0148.09 87c-3.76 2.39-8.83 3.89-15.46 3.89a32.36 32.36 0 01-11.27-1.82 21.26 21.26 0 01-6-3.34 18.9 18.9 0 01-5.51-7.27 22.72 22.72 0 01-1.77-9 28.25 28.25 0 012.38-11.18 27.42 27.42 0 016.69-9.43A26.2 26.2 0 0120 46.74a21 21 0 012.88-1.64 21.9 21.9 0 014-1.44 23.6 23.6 0 0111.57 0 21.9 21.9 0 014 1.44 21 21 0 012.88 1.64 26.2 26.2 0 012.78 2.16z"/>
    <path d="M48.47 45.42l.48.38c9.53-10.35 14.1-27.56 12.23-37-.41-2.07-1.33-4.71-3.36-5.56a3.28 3.28 0 00-1.29-.27c-3.18 0-7.19 4.77-10.46 12.45a78.42 78.42 0 00-5.79 25.76c.38.11.75.24 1.12.37.14-6.69 3.87-19 7.41-23.41a4.41 4.41 0 013.3-2 2.77 2.77 0 011.17.26c1.45.67 2.27 2.44 2.46 5.24.42 6.53-2.67 18.9-7.27 23.82m.58 3.86a1.43 1.43 0 01-1-.38 24.69 24.69 0 00-2.78-2.16 1.46 1.46 0 010-2.46c4.06-2.57 7.93-15.6 7.49-22.49-.13-2.07-.61-2.63-.73-2.74-.13.05-.61.31-1.41 1.46-3.67 5.33-7.06 19-6.21 23a1.48 1.48 0 01-2.07 1.63 22 22 0 00-4-1.44 1.47 1.47 0 01-1.1-1.46C37.82 23.2 46.79 0 56.53 0A6.17 6.17 0 0159 .5c2.56 1.07 4.32 3.73 5.1 7.69 2.12 10.74-3 29.64-14 40.66a1.47 1.47 0 01-1 .43M29.32 85.75a8.52 8.52 0 01-4.62-1.44 1.47 1.47 0 011.58-2.48 5.41 5.41 0 006.23 0 1.46 1.46 0 011.52 0c2.14 1.31 3.83 1.32 5.65.05a1.46 1.46 0 111.68 2.4 7.36 7.36 0 01-8.1.48 8.82 8.82 0 01-3.94 1"/>
    <path d="M33.27 84.54a1.47 1.47 0 01-1.47-1.47v-1.7a1.47 1.47 0 012.93 0v1.7a1.46 1.46 0 01-1.46 1.47"/>
  </g>
</svg>