<svg xmlns="http://www.w3.org/2000/svg" viewBox="0 0 86.33 67.77" class="h-full">
  <g class="fill-current">
    <path d="M54.17 12.6a1.35 1.35 0 01.93.37l1.07 1-.09-1.51a1.34 1.34 0 01.7-1.26l1.42-.79-1.55-.41a1.36 1.36 0 01-1-1.07l-.26-1.48-.8 1.24a1.36 1.36 0 01-1.29.61l-1.6-.19 1 1.26a1.36 1.36 0 01.17 1.41l-.69 1.45 1.5-.56a1.5 1.5 0 01.47-.08m3.54 6.09a1.33 1.33 0 01-.93-.38l-2.93-2.8L50 16.92a1.35 1.35 0 01-1.69-1.84l1.74-3.68-2.49-3.17a1.33 1.33 0 01-.12-1.49 1.36 1.36 0 011.34-.69l4 .48L55 3.1a1.33 1.33 0 011.4-.58 1.36 1.36 0 011.06 1.09l.7 4 4 1.08a1.35 1.35 0 011 1.14 1.37 1.37 0 01-.69 1.34l-3.61 2 .23 4a1.5 1.5 0 010 .22 1.36 1.36 0 01-1.35 1.35zM38.56 23.56l1.34.87a1.36 1.36 0 01.61 1.29l-.19 1.59 1.24-1a1.36 1.36 0 011.44-.17l1.34.63-.56-1.41a1.35 1.35 0 01.22-1.42l1.1-1.19-1.61.09a1.35 1.35 0 01-1.26-.71l-.71-1.32-.37 1.44a1.34 1.34 0 01-1 1zm0 8.23a1.41 1.41 0 01-.66-.17 1.34 1.34 0 01-.68-1.34l.48-4L34.33 24a1.35 1.35 0 01.47-2.45l4-.82 1-4a1.35 1.35 0 012.5-.31l1.94 3.6 4.08-.23a1.32 1.32 0 011.3.77 1.37 1.37 0 01-.23 1.49l-2.79 3 1.4 3.78a1.32 1.32 0 01.15.62 1.34 1.34 0 01-1.34 1.35 1.33 1.33 0 01-.58-.13l-3.63-1.73-3.17 2.55a1.31 1.31 0 01-.84.3M12.36 20l1.56.37a1.35 1.35 0 011 1l.36 1.63.83-1.36A1.36 1.36 0 0117.4 21l1.47.14-1-1.14a1.36 1.36 0 01-.23-1.42l.64-1.5-1.48.63a1.36 1.36 0 01-1.43-.24l-1.11-1 .13 1.47a1.35 1.35 0 01-.64 1.28zm2.34 7.81a.86.86 0 01-.22 0 1.32 1.32 0 01-1.09-1l-.91-4-3.93-.93a1.36 1.36 0 01-1-1.1 1.39 1.39 0 01.63-1.37l3.47-2.11-.37-4.07a1.34 1.34 0 012.24-1.12l3 2.73 3.77-1.6a1.36 1.36 0 011.48.29 1.34 1.34 0 01.29 1.47l-1.61 3.79 2.63 3a1.34 1.34 0 01-.93 2.32H22l-4-.4-2.12 3.47a1.35 1.35 0 01-1.15.64M6.15 37.68a1.35 1.35 0 011.07.53l1 1.27.2-1.58a1.37 1.37 0 01.91-1.11l1.4-.47-1.38-.63a1.35 1.35 0 01-.8-1.2v-1.63L7.39 34a1.34 1.34 0 01-1.4.37L4.56 34l.73 1.29a1.35 1.35 0 01-.06 1.42L4.31 38l1.58-.31a1.1 1.1 0 01.26 0m2.95 6.6a1.36 1.36 0 01-1.1-.54l-2.42-3.24-4 .77a1.37 1.37 0 01-1.36-.58 1.34 1.34 0 010-1.5l2.29-3.36-2-3.55a1.35 1.35 0 011.59-1.95L6 31.58l2.78-3a1.35 1.35 0 011.47-.34 1.33 1.33 0 01.87 1.23l.08 4.12 3.73 1.69a1.35 1.35 0 01-.12 2.5L11 39.08l-.51 4a1.37 1.37 0 01-1.39 1.21M25.93 40.91l1.6.13a1.33 1.33 0 011.14.85l.59 1.48.62-1.47a1.32 1.32 0 011.17-.82l1.48-.08-1.17-1a1.34 1.34 0 01-.44-1.37l.4-1.58-1.32.87a1.38 1.38 0 01-1.45 0l-1.25-.83.35 1.44a1.33 1.33 0 01-.44 1.36zm3.29 7.39a1.36 1.36 0 01-1.22-.86l-1.5-3.78-4-.32a1.36 1.36 0 01-1.17-.94 1.33 1.33 0 01.35-1.4l3.1-2.61-1-4a1.35 1.35 0 012.05-1.45l3.41 2.24L32.75 33a1.35 1.35 0 012 1.48l-1 4 3.14 2.63a1.35 1.35 0 01-.79 2.38l-4.1.23-1.57 3.75a1.35 1.35 0 01-1.25.83M29.48 8l1.42.75a1.38 1.38 0 01.72 1.25l-.05 1.59 1.15-1.1a1.34 1.34 0 011.4-.3l1.39.51-.69-1.36A1.35 1.35 0 0135 7.86l1-1.29-1.6.24a1.38 1.38 0 01-1.4-.59L32.21 5 32 6.43a1.37 1.37 0 01-1 1.07zm.64 8.2a1.45 1.45 0 01-.54-.11 1.36 1.36 0 01-.8-1.28l.12-4.06-3.58-1.9a1.34 1.34 0 01-.71-1.32 1.35 1.35 0 01.95-1.16l3.88-1.17.67-4a1.35 1.35 0 012.45-.6L34.81 4l4-.59a1.33 1.33 0 011.36.65 1.36 1.36 0 01-.09 1.51l-2.47 3.27 1.79 3.54a1.32 1.32 0 01.21.72 1.34 1.34 0 01-1.82 1.26L34 13l-2.92 2.81a1.34 1.34 0 01-.94.38M67.68 22.67a1.35 1.35 0 011.16.66l.75 1.27.33-1.48a1.35 1.35 0 011-1l1.59-.37-1.39-.83a1.35 1.35 0 01-.65-1.29l.15-1.5-1.11 1a1.35 1.35 0 01-1.41.23l-1.49-.61.63 1.48A1.35 1.35 0 0167 21.6l-1 1.21 1.59-.13h.11m2.51 6.92a1.35 1.35 0 01-1.21-.67l-2-3.49-4 .34a1.36 1.36 0 01-1.32-.73 1.37 1.37 0 01.19-1.5l2.65-3.08-1.58-3.73a1.32 1.32 0 01.28-1.47A1.34 1.34 0 0164.6 15l3.75 1.54 3.05-2.74a1.35 1.35 0 012.24 1.2l-.4 4 3.52 2.1a1.35 1.35 0 01.64 1.36 1.33 1.33 0 01-1 1.11l-4 .94-.86 4a1.35 1.35 0 01-1.11 1.05h-.21M57.39 35.55a1.36 1.36 0 011.16.66l.75 1.27.32-1.48a1.36 1.36 0 011-1l1.59-.37-1.39-.83a1.32 1.32 0 01-.65-1.29l.15-1.51-1.1 1a1.37 1.37 0 01-1.41.24l-1.49-.62.68 1.45a1.37 1.37 0 01-.22 1.41l-1 1.21 1.59-.13h.12m2.5 6.92a1.36 1.36 0 01-1.16-.66l-2.07-3.49-4 .34a1.35 1.35 0 01-1.14-2.23l2.66-3.08-1.59-3.73a1.35 1.35 0 011.76-1.77l3.75 1.54 3-2.7a1.34 1.34 0 012.23 1.14l-.4 4.06 3.43 2.1a1.34 1.34 0 01-.38 2.47l-4 .94-.87 4a1.34 1.34 0 01-1.1 1.05h-.22M74.9 38.92h1.59a1.33 1.33 0 011.19.79l.61 1.35.49-1.43a1.33 1.33 0 011.12-.91l1.61-.19-1.28-1a1.33 1.33 0 01-.5-1.35l.32-1.47-1.21.84a1.35 1.35 0 01-1.43.08L76 34.92l.46 1.54a1.37 1.37 0 01-.38 1.37zm3.56 7.22a1.34 1.34 0 01-1.23-.8l-1.66-3.7-4.06-.13a1.35 1.35 0 01-.87-2.34l3-2.76-1.14-3.88a1.35 1.35 0 01.45-1.44 1.33 1.33 0 011.48-.09l3.55 2 3.34-2.34a1.36 1.36 0 011.52 0 1.32 1.32 0 01.57 1.34l-.86 4 3.25 2.49a1.35 1.35 0 01-.66 2.41l-4.09.47-1.32 3.88a1.36 1.36 0 01-1.21.91h-.06"/>
    <path d="M44.9 67.77a1.35 1.35 0 01-1-.42A163.81 163.81 0 0013 42.26 1.35 1.35 0 1114.39 40a166.39 166.39 0 0131.48 25.49 1.33 1.33 0 010 1.9 1.35 1.35 0 01-.93.38M22.56 32.58a1.36 1.36 0 01-1.21-.75 19.44 19.44 0 00-2.67-4.47 1.35 1.35 0 012.15-1.63 22.12 22.12 0 012.94 4.9 1.34 1.34 0 01-.6 1.81 1.42 1.42 0 01-.6.14M44.9 61.65a1.38 1.38 0 01-1.17-.65c-3.78-6.43-7-10.67-10.26-13.37a1.35 1.35 0 011.74-2.07c3.45 2.9 6.9 7.37 10.85 14.07a1.34 1.34 0 01-.48 1.84 1.3 1.3 0 01-.68.19M44.9 54.79a1.34 1.34 0 01-1.32-1.37c.17-8.49-.5-15.48-2-21.38a1.35 1.35 0 012.61-.68c1.61 6.14 2.31 13.37 2.13 22.11a1.34 1.34 0 01-1.34 1.32M35.07 20.25a1.35 1.35 0 01-1.31-1.05L33 16.06a1.35 1.35 0 012.63-.61l.72 3.14a1.34 1.34 0 01-1 1.62 1 1 0 01-.3 0M51.88 26.45h-.16A1.35 1.35 0 0150.53 25a32.15 32.15 0 011.56-7.4 1.35 1.35 0 012.53.95 30.22 30.22 0 00-1.41 6.75 1.34 1.34 0 01-1.33 1.2M48.62 59.82h-.22a1.35 1.35 0 01-1.11-1.55 41.16 41.16 0 016.81-17.6 1.35 1.35 0 112.19 1.57A38.57 38.57 0 0050 58.68a1.35 1.35 0 01-1.33 1.14M53.36 64.45a1.34 1.34 0 01-.61-.15 1.35 1.35 0 01-.6-1.81c5.33-10.67 12.21-17.29 21-20.24a1.35 1.35 0 01.85 2.56c-8.21 2.75-14.39 8.75-19.46 18.89a1.34 1.34 0 01-1.2.75M64.87 30.84a1.29 1.29 0 01-.79-.26 1.34 1.34 0 01-.3-1.88l1.31-1.8a1.35 1.35 0 112.18 1.59L66 30.28a1.32 1.32 0 01-1.09.56"/>
  </g>
</svg>