<svg xmlns="http://www.w3.org/2000/svg" viewBox="0 0 28.86 93.49" class="h-full">
  <g class="fill-current">
    <path d="M26.54 56.13C31.83 43 26.43 37 26.43 37c.82 6.46-4.11 10.1-10.46 22.43-.37.73-.7 1.48-1 2.26v-6.48c0-14.5-.56-21.67 1.51-24.49 5.44-.79 10.38-7.9 11.15-16.39.74-8.7-5.42-14.33-6.26-13.9-.27.15-.31.82-.38 2C19.28.91 17.71 0 17.2 0a5.81 5.81 0 00-2.12.82 3.75 3.75 0 00-1.43-.63 4.7 4.7 0 00-2 .81A6 6 0 009.24.36 8.14 8.14 0 006.71 2c-.07-.59-.18-.93-.43-1C5.17.76-.72 6.2.07 14.9S7.41 31 11.25 31H12c.19 1.17 1.47 9.85 1 25.11-.13 4.47-.21 9-.27 13.29-1.22-9.91-3.68-21-8.54-29.26 0 0-4.93 22.61 8.22 53.33h3.23a14.93 14.93 0 01-.1-1.53v-.28c-.1-9.08 6-23.24 11-35.55"/>
  </g>
</svg>