<svg xmlns="http://www.w3.org/2000/svg" viewBox="0 0 78.58 68.75" class="h-full">
  <defs>
    <clipPath id="a" transform="translate(-.3 -.31)">
      <path fill="none" d="M0 0h79.17v69.36H0z"/>
    </clipPath>
  </defs>
  <g >
    <path fill="none" class="stroke-current" stroke-miterlimit="10" stroke-width="2.76" d="M31 34.06l9.52 2.22 1.18 1.17m-11.86-2.18l3.49-3.58a1.71 1.71 0 000-2.39l-3.63-3.56a1.67 1.67 0 00-2.37 0l-3.49 3.64L37.07 42.3m7.91-22.79l3.49-3.64m-4.86-7.06l-4.66 4.88 12.06 11.68 4.69-4.85m-17.71 6.27l3.49-3.64m-4.86-7.07l-4.66 4.85 12.06 11.76 4.68-4.9M22.85 42.55l3.49-3.64m-4.86-7.07l-4.66 4.85 13.26 12.89m27-38.72a10.55 10.55 0 1114.45 13.77 10.43 10.43 0 01-4.83 1.2M54.45 8.12l6.71 6.74M59.52 3.08l-2-1.7H39.24a5.13 5.13 0 00-3.87 1.18L2.97 34.92a5.38 5.38 0 000 7.64l23.14 23.21a5.42 5.42 0 007.7 0L66.3 33.16a5.49 5.49 0 001.56-3.91V10.88l-2.51-2.19"/>
  </g>
</svg>