<svg xmlns="http://www.w3.org/2000/svg" viewBox="0 0 101.4 89.92" class="h-full">
  <g class="fill-current">
    <path d="M27.08 39.82c-2.15 4.46-1.83 6.6-1.11 7.62s2.57 1.66 5.33 1.66a37.12 37.12 0 006.7-.76zm4.22 12.09c-3.93 0-6.63-1-8-3-1.81-2.58-1.21-6.51 1.83-12a1.56 1.56 0 011.11-.76 1.7 1.7 0 011.35.32L42.41 48a1.33 1.33 0 01.5 1.38 1.48 1.48 0 01-1.14 1 47.21 47.21 0 01-10.47 1.53m29.31-3.57a37.21 37.21 0 006.73.76c2.76 0 4.56-.56 5.33-1.66s1-3.16-1.11-7.62zm6.73 3.57a47.21 47.21 0 01-10.47-1.49 1.5 1.5 0 01-1.14-1 1.33 1.33 0 01.5-1.38l14.84-11.58a1.7 1.7 0 011.35-.32 1.6 1.6 0 011.11.76c3 5.52 3.64 9.45 1.83 12-1.39 2-4.09 3-8 3m-18 1l-4.51 6a35.66 35.66 0 018.94 0zm-7.94 9.5a1.64 1.64 0 01-1.29-.59 1.29 1.29 0 010-1.6l8-10.65a1.63 1.63 0 011.26-.56 1.63 1.63 0 011.32.64l7.81 10.65a1.29 1.29 0 01-.05 1.6 1.69 1.69 0 01-1.69.53 32.27 32.27 0 00-7.42-.87 33 33 0 00-7.53.88 1.81 1.81 0 01-.4 0m4.67 10.91h6.42a1.58 1.58 0 011.51 1l1.42 4.06c13.43-.94 22.59-6.16 26.16-14.85-4.91 1.32-10.5 2.87-11.68 3.31a10.08 10.08 0 00-.58 1.32 6.51 6.51 0 01-1.84 3.06c-.42.32-1.53 1.16-8.56 1.16h-.28a1.51 1.51 0 01-1.56-1.4v-2.69c-1.9.18-5 .42-7.79.42s-5.89-.24-7.79-.42V71A1.51 1.51 0 0140 72.38h-.28c-7 0-8.14-.84-8.56-1.16a6.6 6.6 0 01-1.85-3.06 9 9 0 00-.57-1.32c-1.18-.44-6.65-2-11.51-3.26 4 8.45 13.47 13.87 26 14.8l1.42-4.06a1.58 1.58 0 011.51-1m-1.79 7.94h-.09c-15.77-.79-27.39-8.06-31.1-19.45a1.31 1.31 0 01.41-1.39 1.73 1.73 0 011.57-.35c5.31 1.41 14.36 3.85 15.35 4.39s1.35 1.57 1.81 2.78a7.67 7.67 0 00.81 1.76 21.45 21.45 0 005.23.51v-2.78a1.37 1.37 0 01.54-1.06 1.75 1.75 0 011.25-.34c.05 0 5.07.58 9.17.58s9.12-.57 9.17-.58a1.77 1.77 0 011.25.34 1.37 1.37 0 01.54 1.06v2.82a22 22 0 005.22-.5 7.55 7.55 0 00.87-1.8c.46-1.21.86-2.25 1.81-2.78s10-3 15.35-4.39a1.73 1.73 0 011.54.33 1.3 1.3 0 01.45 1.35C82.35 73.33 71 80.44 54.41 81.27a1.58 1.58 0 01-1.6-1l-1.45-4.13h-4.08l-1.45 4.13a1.58 1.58 0 01-1.51 1m-8.89 4.78c.75.11 1.56.22 2.57.34 1.65.19 3.4.35 5.2.46 2.18.15 4.45.23 6.74.25h.71c2.06 0 4.15-.07 6.21-.17H57a99.85 99.85 0 0011.37-1.25c11.5-2 25.86-7 29-19.77 4.24-17.31-7.25-35.61-19.6-39.23a33.07 33.07 0 00-9.19-1.44h-.3a29.8 29.8 0 00-3.59.27h-.06c-1.87.25-3.63.64-5.33 1l-1.38.3a33.34 33.34 0 01-7 .9h-.36a35.79 35.79 0 01-8-1.11l-.38-.09a47.89 47.89 0 00-7.57-1.23c-.56 0-1.14-.06-1.72-.06a33.12 33.12 0 00-9.21 1.44C11.33 30.3-.16 48.6 4.09 65.91 7.37 79.26 22.9 84.23 35.35 86zm15.22 3.87h-.76c-2.34 0-4.68-.11-6.92-.26-1.86-.12-3.67-.28-5.39-.48a94.15 94.15 0 01-2.73-.36h-.07C15.57 86 3.89 78.29 1 66.51c-4.66-19 7.84-38.45 21.7-42.51a37 37 0 0110.19-1.58c.68 0 1.33 0 2 .07A51.13 51.13 0 0143 23.8l.38.09a33 33 0 007.19 1h.34a29.44 29.44 0 006.27-.82l1.36-.29c1.75-.39 3.57-.79 5.57-1.06h.06a31.79 31.79 0 014-.3h.39A36.69 36.69 0 0178.72 24c13.85 4.06 26.35 23.52 21.69 42.51-2.77 11.27-13.65 18.85-31.48 21.93a100.58 100.58 0 01-11.67 1.29h-.12c-2.15.12-4.33.18-6.49.18"/>
    <path d="M35.47 22.53a54.29 54.29 0 017.44 1.26l.42.09a32.28 32.28 0 007.19 1 29.43 29.43 0 006.26-.82l1.36-.3c1.56-.34 3.16-.69 4.9-1 .65-1.13.47-2.5 0-4.52A11.69 11.69 0 0157 20.25a7.29 7.29 0 01-4.36-1.36c-2.08-1.48-2.66-5.12-1.34-8.47a9.14 9.14 0 016.53-5.68L56.52 2.9c-6.05.78-9.37 5.73-10.13 15.1a1.45 1.45 0 01-1.19 1.26 16.93 16.93 0 01-12.27-1.75c-.13 1.11.29 2.75 2.54 5m15.05 5.2a36.59 36.59 0 01-8-1.11l-.41-.1a48.89 48.89 0 00-7.54-1.22 1.73 1.73 0 01-1-.44c-3.89-3.69-4.83-7.14-2.79-10.26a1.58 1.58 0 011.07-.68 1.74 1.74 0 011.28.28 13.5 13.5 0 0010.2 2.55C44.45 6.1 49.13.46 57.25 0a1.67 1.67 0 011.46.68l3 4.45a1.28 1.28 0 010 1.43 1.64 1.64 0 01-1.38.71h-.11a6.17 6.17 0 00-6 4.08c-1 2.47-.46 4.78.33 5.35a4 4 0 002.38.74 9.86 9.86 0 006-2.71 1.73 1.73 0 011.57-.34 1.47 1.47 0 011.08 1.06c.11.45.21.88.32 1.31.71 2.94 1.39 5.71-.64 8.19a1.58 1.58 0 01-.89.54h-.17c-1.87.25-3.62.63-5.32 1l-1.38.3a32.38 32.38 0 01-7 .9M27.08 39.82c-2.15 4.45-1.83 6.59-1.11 7.62s2.57 1.66 5.33 1.66a37.12 37.12 0 006.7-.76zm4.22 12.09c-3.93 0-6.63-1-8-3-1.81-2.58-1.21-6.52 1.83-12a1.56 1.56 0 011.11-.76 1.7 1.7 0 011.35.32L42.41 48a1.33 1.33 0 01.5 1.38 1.48 1.48 0 01-1.14 1 47.21 47.21 0 01-10.47 1.53M49.38 52.92l-4.51 6a35.66 35.66 0 018.94 0zm-7.94 9.5a1.64 1.64 0 01-1.29-.59 1.29 1.29 0 010-1.6l8-10.65A1.64 1.64 0 0149.4 49a1.62 1.62 0 011.32.64l7.73 10.55a1.32 1.32 0 01.34.87 1.49 1.49 0 01-1.57 1.41 1.58 1.58 0 01-.43-.05 32.27 32.27 0 00-7.42-.87 33 33 0 00-7.53.88 1.81 1.81 0 01-.4 0M60.61 48.34a37.21 37.21 0 006.73.76c2.76 0 4.56-.56 5.33-1.66s1-3.16-1.11-7.62zm6.73 3.57a47.21 47.21 0 01-10.47-1.49 1.5 1.5 0 01-1.14-1 1.33 1.33 0 01.5-1.38l14.84-11.58a1.7 1.7 0 011.35-.32 1.6 1.6 0 011.11.76c3 5.52 3.64 9.45 1.83 12-1.39 2-4.09 3-8 3"/>
    <path d="M46.11 73.33h6.42a1.58 1.58 0 011.51 1l1.42 4.06c13.43-.94 22.59-6.16 26.16-14.85-4.91 1.32-10.5 2.87-11.68 3.31a10.08 10.08 0 00-.58 1.32 6.51 6.51 0 01-1.84 3.06c-.42.32-1.53 1.16-8.56 1.16h-.28A1.51 1.51 0 0157.11 71v-2.69c-1.9.18-5 .42-7.79.42s-5.89-.24-7.79-.42V71A1.51 1.51 0 0140 72.38h-.28c-7 0-8.14-.84-8.56-1.16a6.6 6.6 0 01-1.85-3.06 9 9 0 00-.57-1.32c-1.18-.44-6.65-2-11.51-3.26 4 8.45 13.47 13.87 26 14.8l1.42-4.06a1.58 1.58 0 011.51-1m-1.79 7.94h-.09c-15.77-.79-27.39-8.06-31.1-19.45a1.31 1.31 0 01.41-1.39 1.73 1.73 0 011.57-.35c5.31 1.41 14.36 3.85 15.35 4.4s1.35 1.56 1.81 2.77a7.67 7.67 0 00.81 1.76 21.45 21.45 0 005.23.51v-2.78a1.37 1.37 0 01.54-1.06 1.75 1.75 0 011.25-.34c.05 0 5.07.58 9.17.58s9.12-.57 9.17-.58a1.77 1.77 0 011.25.34 1.37 1.37 0 01.54 1.06v2.82a22 22 0 005.22-.5 7.55 7.55 0 00.87-1.8c.46-1.21.86-2.25 1.81-2.77s10-3 15.35-4.4a1.73 1.73 0 011.54.33 1.3 1.3 0 01.45 1.35C82.35 73.33 71 80.44 54.41 81.27a1.58 1.58 0 01-1.6-1l-1.45-4.13h-4.08l-1.45 4.13a1.58 1.58 0 01-1.51 1"/>
  </g>
</svg>