<svg xmlns="http://www.w3.org/2000/svg" viewBox="0 0 86.51 51.83" class="h-full">
  <defs>
    <clipPath id="a" transform="translate(-.31 -.31)">
      <path fill="none" d="M0 0h87.12v52.45H0z"/>
    </clipPath>
  </defs>
  <g fill="none" class="stroke-current" stroke-width="3" clip-path="url(#a)" data-name="Layer 1">
    <path stroke-miterlimit="10" d="M61.18 28.63v3.61m0-21.7v16.28m-12.66-5.43h7.24m0 9.05h-7.24V12.35h7.24m-18.07-1.81v19.9h7.23m-21.7-7.24h9m-9 9V15.97a3.63 3.63 0 013.62-3.62h1.81a3.61 3.61 0 013.61 3.62v16.27m-21.7-5.42v1.81a1.81 1.81 0 001.81 1.81h3.62a1.81 1.81 0 001.81-1.81v-5a1.8 1.8 0 00-1-1.62l-5.22-2.58a1.82 1.82 0 01-1-1.62v-3.65a1.81 1.81 0 011.81-1.81h3.62a1.81 1.81 0 011.81 1.81v1.81"/>
    <path stroke-linecap="round" stroke-linejoin="round" d="M81.08 26.82l2.86-2.87a3.6 3.6 0 000-5.11L66.61 1.5H1.5v39.79h65.11l9-9.05m-4.52-9h.23a13.57 13.57 0 11-13 18.28"/>
  </g>
</svg>