<svg xmlns="http://www.w3.org/2000/svg" viewBox="0 0 93.15 93.15" class="h-full">
  <g class="fill-current">
    <path d="M24.88 68.28l-7.94-13.77V38.64l7.94-13.76 13.76-7.94h15.87l13.76 7.94 8 13.76v15.87l-8 13.77-13.76 7.94H38.64zM46.58 0l-8.71 14.1-14.58-7.86-.49 16.56-16.56.49 7.87 14.58L0 46.58l14.11 8.7-7.87 14.58 16.56.49.49 16.57 14.58-7.87 8.71 14.1L55.28 79l14.59 7.88.48-16.57 16.56-.49-7.86-14.54 14.1-8.7-14.1-8.71 7.86-14.58-16.56-.49-.48-16.56-14.59 7.86z" class="cls-2"/>
    <g clip-path="url(#clip-path)">
      <path d="M73.59 46.81A26.79 26.79 0 1146.8 20a26.79 26.79 0 0126.79 26.81" class="cls-2"/>
    </g>
  </g>
</svg>