<svg xmlns="http://www.w3.org/2000/svg" viewBox="0 0 106.7 100" class="h-full">
  <path class="fill-current" d="M86.8 29.5c-2.3 0-4.2 1.9-4.2 4.2 0 16.4-13.1 29.7-29.3 29.7C37.2 63.5 24 50.1 24 33.7c0-2.3-1.9-4.2-4.2-4.2-2.3 0-4.2 1.9-4.2 4.2 0 19.7 14.7 35.9 33.5 38l.6 28.3h5.9l1.9-28.3C76.3 69.6 91 53.4 91 33.7c0-2.3-1.9-4.2-4.2-4.2zm-63.7-8.9l8-9.7 8 9.7c.8 1 2 1.5 3.2 1.5 1.2 0 2.4-.6 3.2-1.5l7.9-9.7 7.9 9.7c1.6 1.9 4.8 1.9 6.4 0l7.9-9.7 7.9 9.7c.8 1 2 1.5 3.2 1.5.9 0 1.9-.3 2.7-1 1.8-1.5 2-4.2.5-6l-11-13.6c-.8-1-2-1.5-3.2-1.5-1.2 0-2.4.6-3.2 1.5l-7.9 9.7-7.9-9.7c-.8-1-2-1.5-3.2-1.5-1.2 0-2.4.6-3.2 1.5l-7.9 9.7-8-9.7c-1.6-1.9-4.8-1.9-6.4 0L16.7 15.1c-1.5 1.8-1.2 4.5.5 6 1.8 1.5 4.4 1.3 5.9-.5z" />
</svg>
