<svg xmlns="http://www.w3.org/2000/svg" viewBox="0 0 92.96 59.13" class="h-full">
  <g class="fill-current">
    <path d="M46.44 26.23a1.46 1.46 0 01-.55-2.8l28.54-11.67a1.45 1.45 0 011.1 2.69L47 26.12a1.32 1.32 0 01-.55.11"/>
    <path d="M32.86 2.9c-10.52 0-16.55 6.62-16.55 18.16 0 3.32 2.13 7.7 6.33 13 7.55 9.58 19.53 19.19 22.84 21.77 8.9-6.83 29.16-24.59 29.16-34.77a25.3 25.3 0 00-1-7.52C71.43 6.68 65.92 2.9 58.09 2.9c-9 0-11.27 4.74-11.29 4.79a1.46 1.46 0 01-2.65 0c-.08-.19-2.4-4.79-11.29-4.79m12.62 56.23a1.5 1.5 0 01-.88-.29c-.62-.47-15.23-11.52-24.24-23-4.62-5.84-6.95-10.79-6.95-14.78 0-6.85 1.9-12.21 5.66-15.92C22.47 1.78 27.24 0 32.86 0 40 0 43.73 2.69 45.48 4.61 47.22 2.69 50.94 0 58.09 0c9.07 0 15.73 4.62 18.27 12.67a28.11 28.11 0 011.18 8.39c0 14.12-29.92 36.82-31.19 37.78a1.49 1.49 0 01-.87.29"/>
    <path d="M46.44 26.23a1.46 1.46 0 01-.55-2.8l28.54-11.67a1.45 1.45 0 011.1 2.69L47 26.12a1.32 1.32 0 01-.55.11M3.12 43.05c2.06 1 5.69 2.48 7.88 2.48a2.13 2.13 0 00.88-.14 3.42 3.42 0 001.93-1.81 2.79 2.79 0 00-.22-2.12c-.54-1.15-1.14-1.29-1.23-1.31a1.49 1.49 0 01-1.36-.86 1.34 1.34 0 01.28-1.51c.07-.14.26-.69-.24-1.75-.8-1.69-2.23-2.08-4.14-1.18-1.28.6-2.86 4.52-3.77 8.2M11 48.43c-3.86 0-10-3.17-10.22-3.31A1.45 1.45 0 010 43.54c.34-1.61 2.21-9.72 5.63-11.32a7.16 7.16 0 013.06-.75 5.39 5.39 0 014.94 3.32 5.53 5.53 0 01.58 3.05 5.46 5.46 0 012 2.38 5.58 5.58 0 01.33 4.34A6.19 6.19 0 0113.11 48a5 5 0 01-2.11.41"/>
    <path d="M12.4 40.16a1.46 1.46 0 11.81-.25 1.42 1.42 0 01-.8.25"/>
    <path d="M12.41 40.15a1.46 1.46 0 01-.55-2.8L21 33.64a1.44 1.44 0 011.89.79 1.47 1.47 0 01-.79 1.9L13 40a1.32 1.32 0 01-.55.11M75 14.56a1.45 1.45 0 01-.55-2.8l15-6.13a1.45 1.45 0 011.1 2.69l-15 6.13a1.49 1.49 0 01-.54.11"/>
    <path d="M85.68 10.2a1.41 1.41 0 01-.56-.12 1.44 1.44 0 01-.77-1.9l2.5-5.94a1.45 1.45 0 012.68 1.13L87 9.31a1.46 1.46 0 01-1.34.89M77.61 13.54a1.46 1.46 0 01-1.34-2l2.67-6.31a1.45 1.45 0 112.67 1.13L79 12.65a1.45 1.45 0 01-1.34.89"/>
    <path d="M83.76 16.12a1.64 1.64 0 01-.56-.12l-6.15-2.59a1.45 1.45 0 111.12-2.67l6.16 2.58a1.45 1.45 0 01-.57 2.79M91.51 12.64a1.65 1.65 0 01-.57-.11l-5.82-2.45a1.45 1.45 0 01-.78-1.9 1.47 1.47 0 011.91-.78l5.82 2.45a1.45 1.45 0 01.78 1.9 1.48 1.48 0 01-1.34.89M48 31a1.46 1.46 0 01-1.38-1l-3.14-9.5a1.45 1.45 0 112.76-.92l3.17 9.53a1.43 1.43 0 01-.91 1.83 1.54 1.54 0 01-.5.06"/>
  </g>
</svg>