<svg xmlns="http://www.w3.org/2000/svg" viewBox="0 0 86.41 85.59" class="h-full">
  <g class="fill-current">
    <path d="M33.56 48.34l3.75-4h3.22l-1.61 2.78-5.36 1.23m0-11.13l5.36 1.25c.53.93 1.06 1.86 1.6 2.79h-3.2l-3.74-4m9.65-5.54l1.6 5.26-1.62 2.78-1.6-2.79 1.62-5.25m9.62 5.58l-3.75 4h-3.22l1.62-2.79 5.35-1.22m-7 7.09h3.22l3.74 4-5.35-1.24-1.61-2.79m-2.69 9.57l-1.59-5.25c.53-.93 1.07-1.86 1.61-2.78l1.6 2.78-1.62 5.25M32.81 83.63Q31 76.82 29.19 70L31 67q1.41 5.33 2.83 10.64a1.554 1.554 0 003-.81Q35 70 33.15 63.21c.56-1 1.12-2 1.69-2.92l.93 3.53a1.554 1.554 0 003-.81c-.57-2.17-1.15-4.33-1.72-6.49.81-1.41 1.63-2.81 2.44-4.21l2.22 7.28a1.55 1.55 0 003 0l2.24-7.28 2.43 4.22c-.58 2.16-1.16 4.33-1.75 6.48a1.556 1.556 0 003 .83l1-3.52 1.67 2.92Q51.35 70 49.51 76.83a1.556 1.556 0 003 .83q1.4-5.31 2.85-10.66l1.75 3q-1.83 6.8-3.67 13.59a1.555 1.555 0 003 .82l2.88-10.62 3.33 5.8a1.544 1.544 0 002.67-1.55L62 72.33l10.61 2.86a1.555 1.555 0 00.82-3l-13.6-3.67L58 65.49l10.61 2.87a1.555 1.555 0 00.82-3l-13.6-3.68-1.68-2.92 3.5.94a1.556 1.556 0 00.83-3L52 55q-1.2-2.11-2.42-4.23L57 52.5a1.55 1.55 0 001.51-2.57c-1.73-1.86-3.45-3.72-5.18-5.57h4.88l4.74 4.77A1.55 1.55 0 0065.11 47l-2.57-2.58h3.37l9.94 10A1.552 1.552 0 0078 52.18q-3.87-3.9-7.76-7.79h3.52q5 5 9.94 10a1.542 1.542 0 002.19-2.17l-7.77-7.8h6.69a1.55 1.55 0 000-3.09h-6.65L86 33.56a1.542 1.542 0 00-2.17-2.19l-10 9.94h-3.55l7.79-7.77a1.541 1.541 0 00-2.18-2.18l-10 9.94h-3.34l2.57-2.57A1.54 1.54 0 0063 36.54l-4.77 4.74h-4.92l5.2-5.55A1.55 1.55 0 0057 33.14l-7.4 1.69 2.44-4.22 6.51-1.73a1.554 1.554 0 00-.81-3l-3.51.93c.56-1 1.13-1.94 1.69-2.92l13.63-3.59a1.554 1.554 0 00-.81-3l-10.62 2.85 1.77-3 13.62-3.63a1.554 1.554 0 00-.81-3l-10.62 2.81c1.11-1.93 2.23-3.85 3.35-5.78A1.54 1.54 0 0062.77 6l-3.36 5.79Q58 6.47 56.58 1.14a1.555 1.555 0 00-3 .82q1.82 6.79 3.62 13.6l-1.77 3Q54 13.29 52.62 8a1.555 1.555 0 00-3 .82q1.8 6.8 3.61 13.6l-1.68 2.91c-.32-1.18-.63-2.35-.94-3.53a1.555 1.555 0 00-3 .82c.58 2.16 1.15 4.32 1.73 6.48l-2.45 4.22q-1.06-3.68-2.16-7.32a1.56 1.56 0 00-3 0c-.75 2.42-1.49 4.85-2.24 7.27L37.08 29c.58-2.16 1.17-4.32 1.75-6.48a1.556 1.556 0 00-3-.83c-.32 1.18-.64 2.35-1 3.53l-1.68-2.92q1.83-6.8 3.67-13.59a1.555 1.555 0 00-3-.82q-1.44 5.31-2.87 10.63c-.59-1-1.18-2-1.76-3.06Q31.13 8.71 33 1.92a1.556 1.556 0 00-3-.83q-1.44 5.31-2.87 10.63l-3.34-5.8a1.544 1.544 0 00-2.67 1.55l3.33 5.79-10.6-2.87a1.556 1.556 0 00-.83 3L26.63 17l1.75 3.05-10.6-2.86a1.556 1.556 0 00-.83 3l13.6 3.67 1.68 2.92-3.5-.94a1.555 1.555 0 00-.82 3l6.5 1.76 2.43 4.22-7.4-1.72a1.55 1.55 0 00-1.51 2.57l5.18 5.58h-4.88l-4.74-4.76a1.55 1.55 0 00-2.19 2.18l2.57 2.57H20.5l-9.94-10a1.541 1.541 0 00-2.18 2.18q3.89 3.89 7.76 7.79h-3.52l-9.94-10a1.55 1.55 0 00-2.19 2.18l7.77 7.79H1.57a1.54 1.54 0 000 3.08h6.68L.46 52a1.541 1.541 0 002.18 2.18l10-9.94h3.52L8.34 52a1.55 1.55 0 002.18 2.19q5-5 10-9.94h3.36l-2.57 2.56A1.542 1.542 0 0023.48 49l4.77-4.75h4.85l-5.19 5.56a1.55 1.55 0 001.49 2.58l7.4-1.69-2.44 4.3-6.51 1.7a1.555 1.555 0 00.82 3l3.5-.93-1.69 2.91-13.62 3.6a1.554 1.554 0 00.81 3l10.62-2.82-1.77 3L12.9 72.1a1.555 1.555 0 00.82 3l10.61-2.83L21 78a1.54 1.54 0 002.65 1.56L27 73.8q1.42 5.33 2.83 10.64a1.554 1.554 0 003-.81"/>
  </g>
</svg>