<?xml version="1.0" encoding="utf-8"?>
<!-- Generator: Adobe Illustrator 24.0.1, SVG Export Plug-In . SVG Version: 6.00 Build 0)  -->
<svg version="1.1" id="Layer_3" xmlns="http://www.w3.org/2000/svg" xmlns:xlink="http://www.w3.org/1999/xlink" x="0px" y="0px"
	 viewBox="0 0 150 100" style="enable-background:new 0 0 150 100;" xml:space="preserve">
<style type="text/css">
	.st0{fill:#FFFFFF;}
	.st1{fill:#00684E;}
	.st2{fill:#DB2F34;stroke:#000000;stroke-width:0.1736;}
	.st3{fill:none;stroke:#000000;stroke-width:0.1736;}
</style>
<g>
	<rect class="st0" width="150" height="50"/>
	<rect y="50" class="st1" width="150" height="50"/>
	<g>
		<g>
			<path class="st2" d="M52.3,29.2c-3.8,0.6-13.5,1.6-17.2,0.9l0.7,1.9c6.2-0.6,12.2,1.5,17.7-0.7L52.3,29.2z"/>
			<path class="st2" d="M37.5,33.7c-2.4-0.7-6.3-5-7-7.6c1.9,1.3,6.3,3.1,7.9,2.9c-0.5,0.4-1.8,1.4-2.8,1.6
				C36.2,31.5,37.1,32.7,37.5,33.7z"/>
		</g>
		<g>
			<path class="st2" d="M45.2,32.4C45.2,32.4,45.3,32.2,45.2,32.4c0.7,1,4.3,0.6,6.2-0.6L50.9,31l-0.4,0.7L49.9,31l-0.2,1.1l-1-0.8
				l-0.2,0.9l-0.6-0.8l-0.2,1l-1-0.8l-0.4,1.1c-0.3-0.3-0.5-0.8-0.5-1.3C45.5,31.6,45.2,32.1,45.2,32.4z"/>
			<path class="st2" d="M45.5,29.2c0,0.3,0.3,1,0.9,1.2c0-0.3-0.4-1.1-0.1-1.4l0.5,0.5l0.2-0.9l0.7,0.5l0.1-1.1l0.7,0.5v-1.2
				C47.2,27.5,45.8,28.8,45.5,29.2z"/>
		</g>
		<path class="st2" d="M115.7,41c-0.3-0.7-1.2-1.5-2-2.1c0.3-0.8,0.8-2,1.3-3.2c-1.2,0.3-3.7,0.5-5.2,0.3c2.8-2.8,8.6-8.5,10.5-11.1
			c-0.7,3.5-0.2,11.5,1.2,14.3c-1.5-0.6-3.2-1.9-4.1-3.2C116.8,37.9,116.1,40.1,115.7,41"/>
		<g>
			<path class="st2" d="M61.7,25.8c0.2,0.9,0.2,1.6,0.9,1.9c0.6,0.3,2.1,0.8,3,2.3c-1.1-0.3-2.6-0.7-2.7,0.3c-0.1,1,0.3,1,1,1.1
				c1,0.2,1.9,1.4,1.9,2.9c-0.8-0.5-1.9-0.9-2.6-0.9c-0.7,0-0.9,0.1-1.1,1c-0.3,1.4,0.2,1.5,0.9,1.6c0.6,0.1,2,0.7,2.1,3.1
				c-0.7-0.6-2.2-1-3.1-1.2c-0.5-0.1-0.6,0.2-0.6,1.1c-0.1,0.9,0,1.2,0.9,1.5c0.9,0.3,1.9,0.9,2.1,2.3c-0.8-0.4-2.1-0.3-2.5-0.1
				c-0.4,0.2-0.6,1.1,0.2,3c1.9-0.7,3.8-1,5.4-1.2c4.1-0.4,3.1-3.3,3.1-7.8c0-4.5,9-9.5,22.7-17.5c-3.3,8.4,1.2,7.6,3.7,6.7
				c2.5-1,8.4-3.4,13-5.4c-6.3,4.2-9.5,8.7-4,10.7c-7.1,2.2-10.4,8.4-6.5,12.3c-2.7-0.9-6.3,0.8-7.9,3.3c2.8-0.3,8.1,0.4,11.4,1.4
				c3.1,0.9,8.3-0.2,8.8-2.9c0-0.1,0-0.3,0-0.4c0-1-0.2-1.7-0.6-2.2c-0.8-1.2-2.2-1.4-3-1.4c-1.1,0-2.3,0.5-2.3,1.3
				c0,0.8,0.7,1.2,2.1,1.2c0.8,0,1.9,0.1,3.2-1c0.4,0.5,0.6,1.3,0.6,2.2c0,0.1,0,0.3,0,0.4c-1.3,0.7-2.7,1-3.9,1
				c-2.8,0-5.4-1.1-5.4-4.2s3.1-4.8,5.6-4.8c3.5,0,8.3,1.4,8.3,6.9c0,7-9.2,10.3-14.6,10.3c0.9,0.8,1.9,1.5,3,1.9
				c3.9,1.5,7.3,3.4,8.5,6.2c-1.5,0-3.9-1.2-5-2.4c3.1,3.8-0.7,10.8-0.3,13.1c0.4,2.5,3.4,1,3.4,2.9c0,1.7-1.7,1.4-2.4,0.6
				c-0.6-0.8-2.7-1.4-3.8-0.6c-1,0.7-2.4,1-3.1,0.3s-3-0.4-4,0.5c-1,1-2.4,1-2.8,0.3c-0.5-0.8-0.3-1.7,1.5-2c-0.8-0.9-3.3,0.6-3.8-1
				c-0.3-1.2,0.3-1.7,2.5-1.6c-0.2-0.6-1.8-0.8-1.6-2c0.2-1.2,1.5-1.9,2.9-0.2c3.9,4.6,5.8,2,7.1,0c-0.4-1,0-1.7,0.9-2.4
				c-0.4-0.7-0.2-1.8,0.1-2.5c-0.6-0.4-1-2.1-0.3-2.7c-0.6,0-1.4-0.6-1.4-1.8c-0.5,0.3-1.6,0.6-2.4-0.3c-0.8,0.5-3,0.6-3.9-0.5
				c-1.3,0.5-3.6,0.4-4.2-0.6c-1.1,0.3-3.2-0.7-3.7-1.8c-0.6,0-1.3-0.3-1.9-0.6c-1.7,1.3-4.1,3.8-1.7,5.7c2.3,1.9,7.2,0.3,7.3,5.1
				c-1.1-1-3.2-0.7-3.9-1.6c-2.3,3.5-5.7,6.6-10.7,7.9c0.7,0.5,2.1,0.5,2.6,0.5c1.1-0.1,2,0.8,1.2,1.9c-0.8,1.1-2.5,0.2-3.5-0.7
				C77,75.3,76,76,75.6,76.3s-0.9,0.5-1.6-0.2c-0.7-0.7-1.3-0.2-1.7,0.2c-0.6,0.7-1.9-0.9-3.9,1c-1,0.9-3.4-0.3-2.4-1.6
				c-1,0.3-2.8-1.2-1.3-2.6c1.3-1.3,3.9,1.7,6,0.8c-0.5-0.6-1.4-1.7-3.5-1.9c-1-0.1-1.2-1.3-0.7-2.2c0.6-1.1,2.5-0.3,3.7,1.3
				c1,1.3,2.3,1.3,3.6,1.1c0.9-0.6,2.4-0.6,3-0.4c0-0.6,1-1.2,1.8-1.2c0-0.9,0.2-1.6,1.5-1.9c0.1,0,0.2,0,0.3,0
				c-0.9,0-1.8-0.4-2.3-1c-1.7,0.4-3.7-0.4-3.9-2c-2.7-0.2-3-3.1-2.3-4c0.1-0.1,0.1-0.2,0.2-0.2c-0.8,0.6-1.9,0.9-3.1,0.5
				c-1.1,1.6-3.1,2.5-5.3,1.9c-0.6,0.9-1.4,1.5-2.3,1.7c0.1,1-0.1,2.2-1.5,3.6c0.3-1.9-2.1-2.5-1.6-5.6c-0.2,2.2-6.7,6-7.7,10.9
				c1,0.4,2,0.7,2.6,0.6c1.6-0.3,2.2,1.4,1.7,2.1c-0.5,0.7-1.8,1-2.4,0.4c-0.6-0.6-1.7,0.2-2.3-0.9c-0.6-1.1-2.1-0.7-2.8,0
				c-0.6,0.7-2.8-1-4.4,0.7c-0.6,0.6-2.6,1.3-3.7,1c-1.2-0.3-1.9-1.6-1.5-2.2c-0.8-0.7-0.8-1.6,0-2.4c-0.3-1.1,0.6-3.3,2.2-2.4
				c1,0.5,4.4,3.1,7.4,0.2c2.6-2.6,1.1-4.6,2.8-4.9c-0.2-1,0.4-2.3,1.1-2.6c-0.2-0.3-0.2-0.9-0.1-1.4c-0.4,0-0.8-0.1-1.1-0.3
				c-0.9,0.3-2.4,0.6-4,0.6c0,1-1.2,3.5-2.2,4.8c-0.3-9.5-9-10.5-10.2-18c0,1.1-1.2,2.2-1.3,3.2c-0.1,1-0.7,1.7-1.7,1.3
				c-1-0.4-1.3-2.2-0.3-2.5c1-0.3,0.8-2,1.5-2.2c0.6-0.2,0.8-0.9,0.5-1.8c-0.3-0.9,0.1-1.9,0.4-2.6c0.3-0.6-0.1-1.7-1-2.1
				c-0.9-0.4-1.2-1.3-0.9-2.2c-1-0.7-0.7-2.2,0.6-2.5c1.6-0.3,1.6,2.3,2.5,2.6c-0.1-0.5,0-1.5,0.4-2.2c-0.5-1.1,0.1-2,1.2-2
				c1.8,0,1.2,3,0.8,4c0.6-0.9,1.6-1.9,2.3-1.2c0.7,0.7,0.6,2.1-0.2,2.8c-0.6,0.5-2,1.3-1.6,2.2c0.8,1.4,1.3,3,1.3,5.1
				c1.1,0.8,1.8,1.8,1.8,2.6c0.7,0,2.1,0.6,2.3,1.5c0.9-0.1,2.2,0.1,2.5,0.9c0.3-0.2,1-0.2,1.5-0.2c0-0.7,0.2-1.3,0.6-1.9
				c-1.5-1.6-1.4-4.2,0.1-5.3c-0.4-1.1-0.3-3.1,1.2-4.1c0-1.1,0.3-2.5,1.7-3.4c-0.2-1.2,0.5-2.8,1.4-2.9c-0.2-1.1-0.1-2.5,1.2-3.2
				c-0.3-0.4-0.5-0.8-0.4-1.2c-2.2,0.5-3.1,1.8-3.8,3.1c-0.1-0.5-0.2-1.2-0.5-1.7c0,1.3-1,1.8-1,3.7c-0.7-0.8-1-2-1-2.9
				c0-0.7-1.1-1.3-0.8-2.6c1.7,1.6,5.2-1.9,8.3-0.8c-3-6.3-5.1-3.2-6.7-2.2c-1.5,1.1-2.6-0.5-2.4-1.6c-2-0.5-4.5-0.4-7.1,0.1
				c1.9-2.6,6.5-3.7,9.9-3.4c1.5-2.7,3.2-2.3,5-2.1c1.1,0.2,2.5,0.2,3.8,0.1c0.8-2.3,5.6-2.5,6.1-4.3c0.4,0.3,0.2,1.6-0.3,2.8
				c1.3-0.4,2.3-0.8,2.7-1.6c0.2,0.7-0.1,2.7-0.6,3.3c0.6-0.2,1-0.2,1.5-0.2c-1.5,0.9-3.4,2.2-3.7,2.4C61.1,25,60.9,25.4,61.7,25.8
				c-0.9,0.2-3.3,1-4.3,0.3"/>
		</g>
		<g>
			<path class="st2" d="M28.8,37.5c1.1-0.8,2.7-0.2,3,1c0.2,0.8-1.1,1.4-1.2,0.6C30.5,38.2,29.9,37.6,28.8,37.5z"/>
			<path class="st2" d="M33.3,35c1.3-0.5,2.7,0.6,2.6,1.8c0,0.8-1.4,1-1.3,0.3C34.7,36.1,34.3,35.3,33.3,35z"/>
			<path class="st2" d="M38.3,37.2c1.3,0.6,1.5,2.3,0.6,3.2c-0.6,0.6-1.7-0.3-1.1-0.8C38.5,39,38.7,38.2,38.3,37.2z"/>
			<path class="st2" d="M28.1,54.7c1.1,0.9,2.7,0.3,3.1-0.9c0.2-0.8-1-1.4-1.2-0.7C29.8,54.1,29.2,54.7,28.1,54.7z"/>
			<path class="st2" d="M35.9,72.2c0.5-1.3,2.1-1.7,3.1-0.9c0.6,0.5-0.1,1.7-0.6,1.2C37.7,71.8,36.8,71.6,35.9,72.2z"/>
			<path class="st2" d="M34.5,75.8c0.1-1.4,2-2.3,3.1-1.8c0.7,0.3,0.4,1.7-0.3,1.3C36.5,74.8,35.2,75,34.5,75.8z"/>
			<path class="st2" d="M36.5,79.1c-0.5-1.3,0.5-2.7,1.8-2.7c0.8,0,1,1.4,0.3,1.3C37.6,77.6,36.9,78.1,36.5,79.1z"/>
			<path class="st2" d="M56.9,77.9c0.2-1.4-1.1-2.5-2.3-2.2c-0.8,0.2-0.7,1.6,0,1.4C55.5,76.7,56.3,77,56.9,77.9z"/>
			<path class="st2" d="M64.7,78.4c-0.3-1.4,0.9-2.6,2.1-2.4c0.8,0.1,0.8,1.6,0.1,1.4C66,77.1,65.1,77.4,64.7,78.4z"/>
			<path class="st2" d="M84.1,78c0.1-1.4-1.2-2.4-2.4-2.1c-0.8,0.2-0.6,1.6,0.1,1.4C82.7,76.9,83.6,77.1,84.1,78z"/>
			<path class="st2" d="M62.4,75.4c-0.2-1.4,1.2-2.6,2.4-2.3c0.8,0.2,0.6,1.7-0.1,1.4C63.7,74.2,62.9,74.5,62.4,75.4z"/>
			<path class="st2" d="M64.2,71.4c0.1-1.4,1.7-2.3,2.8-1.8c0.7,0.3,0.2,1.8-0.4,1.4C65.7,70.5,64.9,70.6,64.2,71.4z"/>
			<path class="st2" d="M94,79.1c-0.3-1.4,0.9-2.6,2.1-2.4c0.8,0.1,0.8,1.6,0.1,1.4C95.2,77.8,94.4,78.1,94,79.1z"/>
			<path class="st2" d="M113.3,78.4c0.3-1.4-0.9-2.6-2.1-2.4c-0.8,0.1-0.8,1.5-0.1,1.4C112,77.1,112.8,77.5,113.3,78.4z"/>
			<path class="st2" d="M91.5,75.9c-0.2-1.4,1.1-2.5,2.3-2.3c0.8,0.2,0.7,1.6,0,1.4C92.8,74.7,92,75,91.5,75.9z"/>
			<path class="st2" d="M92.2,72.1c0-1.4,1.4-2.3,2.6-1.9c0.8,0.3,0.4,1.7-0.2,1.3C93.7,71.1,92.9,71.3,92.2,72.1z"/>
		</g>
		<g>
			<path class="st3" d="M97.1,26c-3.3,1.1-16,6.1-18.3,6.9c-2.3,0.8-3.5,1-4.9,4.2"/>
			<path class="st3" d="M90.9,22.3c-8.3,5.4-15.1,10-17,14.4c-1.9,4.4-1.8,7.1-6.4,7.9"/>
			<path class="st3" d="M54.2,52.9c2.1-2.4,6.4-5.4,10.6-5.5c-0.8,1.2-1.6,3-2.1,4.2"/>
			<path class="st3" d="M62.6,53.2c1-1.4,3.6-4.3,5.3-5.5c-0.8,2.3-2.1,7.9-1.4,11.7c0.4-3.6,2.3-9.3,4.3-12.5
				c1.5,3.5,3.5,8.6,3.5,11.8c0.4-3.8-0.4-10.4-1.7-13.2c3.5,1.8,8,7,9.9,10.2c-1.3-4.5-5.7-9.9-8-11.7c5.8,1,14.2,4.8,17.3,7.5
				c-5.1-4.8-11.3-8.5-15.7-10.2c6.9-0.6,19.9,1,23.6,2.4c-5.5-3.1-16.7-4.8-23.4-4.3c7.1-3,19.7-6.5,29.9-8
				c-7.8,0.4-17.8,2.5-28.1,4.8c4.6-3.1,18.8-9,22.1-10"/>
			<path class="st3" d="M56.3,24c0.6-2,3.1-2.6,5.2-3.2"/>
			<path class="st3" d="M59.7,25.5c-1.7-0.1-2-0.7-1.1-1.4c0.6-0.4,1.9-1.1,2.7-1.2c-0.2,0-0.8-0.2-1.1-0.3c0.9-0.4,2.4-1,2.9-1.5"
				/>
			<path class="st3" d="M57.7,22.2c-0.7,0.1-1.4,0.1-2.1,0.2"/>
			<path class="st3" d="M53.2,32.3c-0.5,0-0.9,0.1-1.3,0.2"/>
			<path class="st3" d="M46.2,54.4c0,1.2,0.5,2.6,1.2,3.4c0.7,0.8,4.9,1,5.1-0.4"/>
			<path class="st3" d="M46.8,52.5c1.5,1.6,6.2,0.6,6.2-0.6"/>
			<path class="st3" d="M46.9,47.3c0.5,1.3,6.1,2.5,6.1,1"/>
			<path class="st3" d="M48.1,43.2c0,1.5,5.1,2.5,5.2,1.4"/>
			<path class="st3" d="M49.8,39.7c0.2,1.2,3.5,2.3,4,1.8"/>
			<path class="st3" d="M51.2,36.9c0.2,0.8,2.6,1.6,3.4,1.3"/>
			<path class="st3" d="M52.4,33.7c0.5,0.6,1.4,1.2,3.1,1.4"/>
			<path class="st3" d="M44.1,27.6c0-0.9,0.9-1,0.8-1.9"/>
			<path class="st3" d="M53.2,31.3c0.3,0.5,1.1,1.5,1.2,2.2c0.4-0.3,0.8-1.1,0.9-1.4c0.4,0.3,0.8,1,0.9,1.4c0.2-0.5,0.5-1.4,0.5-2
				c0.6,0.1,1.2,0.4,1.7,0.9c0.1-0.6-0.2-1.3-0.6-1.6c0.5,0,0.9,0,1.4-0.3c-0.3-0.4-0.8-1-1.3-1.3c0.4-0.1,1-0.6,1.3-0.9
				c-0.4-0.2-1.1-0.6-1.5-0.8c0.3-0.3,0.5-0.8,0.6-1.2"/>
			<path class="st3" d="M46,24.3c-0.3,0-0.4,0.6,0.1,1.1c0.4,0.3,0.4,1.5-0.3,1.8"/>
			<path class="st3" d="M56.1,33.5c-1.9,4.4-3.7,12.8-3,18.8"/>
			<path class="st3" d="M55.1,60.6c0,0.9,1.4,1.1,1.4-1.1"/>
			<path class="st3" d="M56.4,60.6c0.2,0.8,1.6,1,1.3-1.3"/>
			<path class="st3" d="M55.8,61.2c0.1,1.7,1.2,1.6,1.3,0"/>
			<path class="st3" d="M57.8,60c0.4,1,1.6,0.5,1.3-1.8"/>
			<path class="st3" d="M59.1,59.3c0.5,0.9,1.6,0.2,1.7-1.3"/>
			<path class="st3" d="M53.5,54.5c-0.7,0.8-1.6,2.6-0.6,4.4c0.6,1,2.3,1.6,2.4,1"/>
			<path class="st3" d="M52.9,58.8c-0.7,0.1-1.7,1.5-1.2,2.9c0.3,1,2.3,1.6,2.6,0.8"/>
			<path class="st3" d="M73.3,60c2.2,0.3,5-1.2,5.2-4.2"/>
			<path class="st3" d="M78.2,57.3c1.2,0.8,3.7,1,4.8-1"/>
			<path class="st3" d="M79.3,57.9c-1.1,2.6-2.1,5.4,0.2,7.4c1.9,1.6,3.3-0.8,5.6,1.6C85.8,67.6,85,69,78,73"/>
			<path class="st3" d="M44.7,54.6c0.5,1,0.4,2.9-0.5,2.6"/>
			<path class="st3" d="M37.9,76.1c1.5-2.2,3.2-0.4,4.5-0.8"/>
			<path class="st3" d="M48.6,24.7c0.4-0.5,4.9,1.2,6.7,0"/>
			<path class="st3" d="M49.4,24.7c-0.3,0.6,0.4,1.5,1.1,1.6c0.8,0.1,1.8-0.4,1.6-1.2"/>
			<path class="st3" d="M33.9,40.9c-0.2,0.4-0.1,1.5,0.6,2.2"/>
			<path class="st3" d="M66,75.7c0.3-0.4,1.6-0.9,2.6-0.6c0.9,0.2,2.6-0.1,3.7-0.5"/>
			<g>
				<path class="st3" d="M56.1,33.5c-0.4,4.2,0.5,10.7,3,13.6"/>
				<path class="st3" d="M54.8,37.2c0.1,3.8,1,8.3,2.8,10.7"/>
				<path class="st3" d="M53.8,41.3c0.4,2.9,1.2,5.7,2.4,7.6"/>
				<path class="st3" d="M53.2,45.7c0.4,1.7,1,3.2,1.8,4.4"/>
				<path class="st3" d="M53,49.8c0.3,0.6,0.5,1.1,0.9,1.6"/>
				<path class="st3" d="M56.1,36.1c-0.1,1.3-1,2.4-1.7,3"/>
				<path class="st3" d="M56.1,38c-0.1,1.3-1,2.6-2.2,3.1"/>
				<path class="st3" d="M56.4,39.8c-0.1,1.3-1.4,3-2.9,3.7"/>
				<path class="st3" d="M56.7,41.7c-0.1,1.3-1.8,3.4-3.5,4"/>
				<path class="st3" d="M57.3,43.6c-0.5,1.8-2.5,3.9-4.2,4.4"/>
				<path class="st3" d="M58.1,45.4c-0.1,1.3-2.8,4.1-5.1,4.8"/>
			</g>
			<path class="st3" d="M42.2,53.7c0.3,1.2-0.6,2.4-1.1,2.1"/>
			<path class="st3" d="M47.1,58c-4.5-1-7.8-2.5-9.7-6.2c-0.5-1,0.8-1.2,0.7-2.1"/>
			<path class="st3" d="M36.8,44.5c-0.8-1.4-1-2.9-0.5-3.8"/>
			<path class="st3" d="M39.9,52.2c0,0.8-0.9,1.8-1.3,1.4"/>
			<path class="st3" d="M47.4,57.8c-0.5,1.3,0.5,3.7,2.7,4.5"/>
			<path class="st3" d="M51.8,61.7c-0.3,0.2-0.4,0.5-0.5,0.8"/>
			<path class="st3" d="M53.5,64.3c-0.4,0.6-1.9,0.2-2.2-0.4"/>
			<path class="st3" d="M47.5,71.4c-1.8,1.8-3.7,1.9-5.9,2.2c-2.2,0.3-2.9-0.8-3.7,0.1"/>
			<path class="st3" d="M62.1,57.9c0.3,1.2,0.2,2.4-0.9,4.2c-0.6,1,0,2.1,0.1,3.4"/>
			<path class="st3" d="M72.1,61.4c1-0.8,1.6-2.1,2-3.1"/>
			<path class="st3" d="M68.9,61.8c1-1.5,1.4-3.5,0.5-5.4"/>
			<path class="st3" d="M63.6,63.7c0.7-1,1.1-2.5,1.1-4.4"/>
			<path class="st3" d="M50.2,66.5c0.2,0.9,1.5,1.3,1.7,0.8"/>
			<path class="st3" d="M60.9,56.1c0,0.9-0.9,1.5-1.5,1c0.1,1.3-0.8,1.6-1.5,1c0.1,1.8-1.3,1.9-2.3,0.6c-1.1,5.3-4.7,9.3-5,11.9
				c-0.1,0.6-2.4,0.4-1.8-1.3"/>
			<path class="st3" d="M76.6,61c-1.3-0.2-3.6-0.6-4.6,0.4"/>
			<path class="st3" d="M77.2,65.1c-1.2,0.5-2.2,0.6-2.9,0.6"/>
			<path class="st3" d="M80.5,68.7c1.2,0,2.4-0.8,2.9-2.8"/>
			<path class="st3" d="M78.2,67.7c0.9-0.2,1.8-0.8,2.3-1.9"/>
			<path class="st3" d="M84,69.1c-0.8-0.2-2.3-0.6-3.6-0.4"/>
			<path class="st3" d="M79.8,72c0.5-0.3-0.3-1.4-1.1-1.4"/>
			<path class="st3" d="M70.7,74c1.1-0.4,2.1-1,3.2-1.7"/>
			<path class="st3" d="M76.9,71.8c0.6,0.2,1.4,1,1.1,1.2"/>
			<path class="st3" d="M82.4,55.6c0.7,1.2,2,2,3.7,1.2c0.1,0.4,0.5,0.7,1,1"/>
			<path class="st3" d="M92,55.3c0.9,0.7-0.6,3.2-2.9,3.2"/>
			<path class="st3" d="M104.1,70.9c0.3,0.7,1.4,0.6,1.9,0c0.5-0.7,1.4-3,0.9-7.6c-0.5-4.6-4.9-5.2-10-6.2c-5.1-1-6.4-2.7-7.4-5.7"
				/>
			<path class="st3" d="M105,68.6c0.4,0.7,1.6,0.6,1.8-0.2"/>
			<path class="st3" d="M105.1,66.1c0.6,0.4,1.9,0.3,1.9-0.6"/>
			<path class="st3" d="M104.8,63.4c0.6,0,2.1,0.1,2-0.6"/>
			<path class="st3" d="M103.3,61.6c0.5-0.3,1.8-1.8,1.1-2.2"/>
			<path class="st3" d="M100.9,61.3c0.8-0.5,1.7-2.9,0.7-3.2"/>
			<path class="st3" d="M97,60.9c1.3-0.5,2.5-3.2,1.6-3.4"/>
			<path class="st3" d="M92.8,60.2c2.1-0.6,2.8-3.4,1.9-3.7"/>
			<path class="st3" d="M95.7,73.1c2.2,0.2,3.4,1.3,4.3,1.8"/>
			<path class="st3" d="M95.2,49.6c2-0.2,4,2.9,6.7,5.2"/>
			<path class="st3" d="M117.3,35.9c0.4-1.3,0.7-2.6,0.8-3.3"/>
			<path class="st3" d="M96.9,75.6c0.4-0.1,0.9-0.1,1.6-0.1"/>
			<path class="st3" d="M116.5,31.6c-0.3,0.8-0.9,2.5-1.5,4.1"/>
			<path class="st3" d="M62.1,45.8c-3.8,1.3-7.8,3.8-10.3,8.5c1.4,0.3,4.1,0,5.3-0.4c0.1,1.1,0.1,2.6,0.1,3.5c1.2-1,2.7-2.3,3.8-2.7
				c-0.1,1.1-0.1,3.1-0.1,3.9c1.6-1.7,4.8-1.9,5.6,0.7c0.7-3.8,6.4-4,7.8-0.7c1.6-3,5.5-4.2,8.1-3c1.1-3.2,6.1-4.9,9.3-4.2
				c-1.1-1.5-0.9-3.1,0-4.5"/>
		</g>
	</g>
</g>
</svg>
